%TF.GenerationSoftware,KiCad,Pcbnew,9.0.7*%
%TF.CreationDate,2026-03-08T01:31:32+05:30*%
%TF.ProjectId,Desk-buddy,4465736b-2d62-4756-9464-792e6b696361,rev?*%
%TF.SameCoordinates,Original*%
%TF.FileFunction,Legend,Top*%
%TF.FilePolarity,Positive*%
%FSLAX46Y46*%
G04 Gerber Fmt 4.6, Leading zero omitted, Abs format (unit mm)*
G04 Created by KiCad (PCBNEW 9.0.7) date 2026-03-08 01:31:32*
%MOMM*%
%LPD*%
G01*
G04 APERTURE LIST*
%ADD10C,0.300000*%
%ADD11C,0.150000*%
%ADD12C,0.120000*%
%ADD13C,0.127000*%
%ADD14C,0.200000*%
G04 APERTURE END LIST*
D10*
X74961653Y-127107971D02*
X74890225Y-127179400D01*
X74890225Y-127179400D02*
X74675939Y-127250828D01*
X74675939Y-127250828D02*
X74533082Y-127250828D01*
X74533082Y-127250828D02*
X74318796Y-127179400D01*
X74318796Y-127179400D02*
X74175939Y-127036542D01*
X74175939Y-127036542D02*
X74104510Y-126893685D01*
X74104510Y-126893685D02*
X74033082Y-126607971D01*
X74033082Y-126607971D02*
X74033082Y-126393685D01*
X74033082Y-126393685D02*
X74104510Y-126107971D01*
X74104510Y-126107971D02*
X74175939Y-125965114D01*
X74175939Y-125965114D02*
X74318796Y-125822257D01*
X74318796Y-125822257D02*
X74533082Y-125750828D01*
X74533082Y-125750828D02*
X74675939Y-125750828D01*
X74675939Y-125750828D02*
X74890225Y-125822257D01*
X74890225Y-125822257D02*
X74961653Y-125893685D01*
X75890225Y-125750828D02*
X76175939Y-125750828D01*
X76175939Y-125750828D02*
X76318796Y-125822257D01*
X76318796Y-125822257D02*
X76461653Y-125965114D01*
X76461653Y-125965114D02*
X76533082Y-126250828D01*
X76533082Y-126250828D02*
X76533082Y-126750828D01*
X76533082Y-126750828D02*
X76461653Y-127036542D01*
X76461653Y-127036542D02*
X76318796Y-127179400D01*
X76318796Y-127179400D02*
X76175939Y-127250828D01*
X76175939Y-127250828D02*
X75890225Y-127250828D01*
X75890225Y-127250828D02*
X75747368Y-127179400D01*
X75747368Y-127179400D02*
X75604510Y-127036542D01*
X75604510Y-127036542D02*
X75533082Y-126750828D01*
X75533082Y-126750828D02*
X75533082Y-126250828D01*
X75533082Y-126250828D02*
X75604510Y-125965114D01*
X75604510Y-125965114D02*
X75747368Y-125822257D01*
X75747368Y-125822257D02*
X75890225Y-125750828D01*
X77175939Y-127250828D02*
X77175939Y-125750828D01*
X77175939Y-125750828D02*
X77533082Y-125750828D01*
X77533082Y-125750828D02*
X77747368Y-125822257D01*
X77747368Y-125822257D02*
X77890225Y-125965114D01*
X77890225Y-125965114D02*
X77961654Y-126107971D01*
X77961654Y-126107971D02*
X78033082Y-126393685D01*
X78033082Y-126393685D02*
X78033082Y-126607971D01*
X78033082Y-126607971D02*
X77961654Y-126893685D01*
X77961654Y-126893685D02*
X77890225Y-127036542D01*
X77890225Y-127036542D02*
X77747368Y-127179400D01*
X77747368Y-127179400D02*
X77533082Y-127250828D01*
X77533082Y-127250828D02*
X77175939Y-127250828D01*
X78675939Y-126465114D02*
X79175939Y-126465114D01*
X79390225Y-127250828D02*
X78675939Y-127250828D01*
X78675939Y-127250828D02*
X78675939Y-125750828D01*
X78675939Y-125750828D02*
X79390225Y-125750828D01*
X79818797Y-125750828D02*
X80318797Y-127250828D01*
X80318797Y-127250828D02*
X80818797Y-125750828D01*
X81318796Y-126465114D02*
X81818796Y-126465114D01*
X82033082Y-127250828D02*
X81318796Y-127250828D01*
X81318796Y-127250828D02*
X81318796Y-125750828D01*
X81318796Y-125750828D02*
X82033082Y-125750828D01*
X83390225Y-127250828D02*
X82675939Y-127250828D01*
X82675939Y-127250828D02*
X82675939Y-125750828D01*
X84604511Y-127250828D02*
X83890225Y-127250828D01*
X83890225Y-127250828D02*
X83890225Y-125750828D01*
X85390226Y-126536542D02*
X85390226Y-127250828D01*
X84890226Y-125750828D02*
X85390226Y-126536542D01*
X85390226Y-126536542D02*
X85890226Y-125750828D01*
D11*
X116200819Y-64031666D02*
X116200819Y-63460238D01*
X117200819Y-63745952D02*
X116200819Y-63745952D01*
X117153200Y-63174523D02*
X117200819Y-63079285D01*
X117200819Y-63079285D02*
X117200819Y-62888809D01*
X117200819Y-62888809D02*
X117153200Y-62793571D01*
X117153200Y-62793571D02*
X117057961Y-62745952D01*
X117057961Y-62745952D02*
X117010342Y-62745952D01*
X117010342Y-62745952D02*
X116915104Y-62793571D01*
X116915104Y-62793571D02*
X116867485Y-62888809D01*
X116867485Y-62888809D02*
X116867485Y-63031666D01*
X116867485Y-63031666D02*
X116819866Y-63126904D01*
X116819866Y-63126904D02*
X116724628Y-63174523D01*
X116724628Y-63174523D02*
X116677009Y-63174523D01*
X116677009Y-63174523D02*
X116581771Y-63126904D01*
X116581771Y-63126904D02*
X116534152Y-63031666D01*
X116534152Y-63031666D02*
X116534152Y-62888809D01*
X116534152Y-62888809D02*
X116581771Y-62793571D01*
X117200819Y-61793571D02*
X117200819Y-62364999D01*
X117200819Y-62079285D02*
X116200819Y-62079285D01*
X116200819Y-62079285D02*
X116343676Y-62174523D01*
X116343676Y-62174523D02*
X116438914Y-62269761D01*
X116438914Y-62269761D02*
X116486533Y-62364999D01*
X32909819Y-110216904D02*
X33719342Y-110216904D01*
X33719342Y-110216904D02*
X33814580Y-110169285D01*
X33814580Y-110169285D02*
X33862200Y-110121666D01*
X33862200Y-110121666D02*
X33909819Y-110026428D01*
X33909819Y-110026428D02*
X33909819Y-109835952D01*
X33909819Y-109835952D02*
X33862200Y-109740714D01*
X33862200Y-109740714D02*
X33814580Y-109693095D01*
X33814580Y-109693095D02*
X33719342Y-109645476D01*
X33719342Y-109645476D02*
X32909819Y-109645476D01*
X33909819Y-108645476D02*
X33909819Y-109216904D01*
X33909819Y-108931190D02*
X32909819Y-108931190D01*
X32909819Y-108931190D02*
X33052676Y-109026428D01*
X33052676Y-109026428D02*
X33147914Y-109121666D01*
X33147914Y-109121666D02*
X33195533Y-109216904D01*
X121461905Y-124304819D02*
X121461905Y-123304819D01*
X121461905Y-123304819D02*
X121700000Y-123304819D01*
X121700000Y-123304819D02*
X121842857Y-123352438D01*
X121842857Y-123352438D02*
X121938095Y-123447676D01*
X121938095Y-123447676D02*
X121985714Y-123542914D01*
X121985714Y-123542914D02*
X122033333Y-123733390D01*
X122033333Y-123733390D02*
X122033333Y-123876247D01*
X122033333Y-123876247D02*
X121985714Y-124066723D01*
X121985714Y-124066723D02*
X121938095Y-124161961D01*
X121938095Y-124161961D02*
X121842857Y-124257200D01*
X121842857Y-124257200D02*
X121700000Y-124304819D01*
X121700000Y-124304819D02*
X121461905Y-124304819D01*
X122414286Y-123400057D02*
X122461905Y-123352438D01*
X122461905Y-123352438D02*
X122557143Y-123304819D01*
X122557143Y-123304819D02*
X122795238Y-123304819D01*
X122795238Y-123304819D02*
X122890476Y-123352438D01*
X122890476Y-123352438D02*
X122938095Y-123400057D01*
X122938095Y-123400057D02*
X122985714Y-123495295D01*
X122985714Y-123495295D02*
X122985714Y-123590533D01*
X122985714Y-123590533D02*
X122938095Y-123733390D01*
X122938095Y-123733390D02*
X122366667Y-124304819D01*
X122366667Y-124304819D02*
X122985714Y-124304819D01*
X113291905Y-124204819D02*
X113291905Y-123204819D01*
X113291905Y-123204819D02*
X113530000Y-123204819D01*
X113530000Y-123204819D02*
X113672857Y-123252438D01*
X113672857Y-123252438D02*
X113768095Y-123347676D01*
X113768095Y-123347676D02*
X113815714Y-123442914D01*
X113815714Y-123442914D02*
X113863333Y-123633390D01*
X113863333Y-123633390D02*
X113863333Y-123776247D01*
X113863333Y-123776247D02*
X113815714Y-123966723D01*
X113815714Y-123966723D02*
X113768095Y-124061961D01*
X113768095Y-124061961D02*
X113672857Y-124157200D01*
X113672857Y-124157200D02*
X113530000Y-124204819D01*
X113530000Y-124204819D02*
X113291905Y-124204819D01*
X114768095Y-123204819D02*
X114291905Y-123204819D01*
X114291905Y-123204819D02*
X114244286Y-123681009D01*
X114244286Y-123681009D02*
X114291905Y-123633390D01*
X114291905Y-123633390D02*
X114387143Y-123585771D01*
X114387143Y-123585771D02*
X114625238Y-123585771D01*
X114625238Y-123585771D02*
X114720476Y-123633390D01*
X114720476Y-123633390D02*
X114768095Y-123681009D01*
X114768095Y-123681009D02*
X114815714Y-123776247D01*
X114815714Y-123776247D02*
X114815714Y-124014342D01*
X114815714Y-124014342D02*
X114768095Y-124109580D01*
X114768095Y-124109580D02*
X114720476Y-124157200D01*
X114720476Y-124157200D02*
X114625238Y-124204819D01*
X114625238Y-124204819D02*
X114387143Y-124204819D01*
X114387143Y-124204819D02*
X114291905Y-124157200D01*
X114291905Y-124157200D02*
X114244286Y-124109580D01*
X128991905Y-124604819D02*
X128991905Y-123604819D01*
X128991905Y-123604819D02*
X129230000Y-123604819D01*
X129230000Y-123604819D02*
X129372857Y-123652438D01*
X129372857Y-123652438D02*
X129468095Y-123747676D01*
X129468095Y-123747676D02*
X129515714Y-123842914D01*
X129515714Y-123842914D02*
X129563333Y-124033390D01*
X129563333Y-124033390D02*
X129563333Y-124176247D01*
X129563333Y-124176247D02*
X129515714Y-124366723D01*
X129515714Y-124366723D02*
X129468095Y-124461961D01*
X129468095Y-124461961D02*
X129372857Y-124557200D01*
X129372857Y-124557200D02*
X129230000Y-124604819D01*
X129230000Y-124604819D02*
X128991905Y-124604819D01*
X130420476Y-123938152D02*
X130420476Y-124604819D01*
X130182381Y-123557200D02*
X129944286Y-124271485D01*
X129944286Y-124271485D02*
X130563333Y-124271485D01*
X36416667Y-73167200D02*
X36559524Y-73214819D01*
X36559524Y-73214819D02*
X36797619Y-73214819D01*
X36797619Y-73214819D02*
X36892857Y-73167200D01*
X36892857Y-73167200D02*
X36940476Y-73119580D01*
X36940476Y-73119580D02*
X36988095Y-73024342D01*
X36988095Y-73024342D02*
X36988095Y-72929104D01*
X36988095Y-72929104D02*
X36940476Y-72833866D01*
X36940476Y-72833866D02*
X36892857Y-72786247D01*
X36892857Y-72786247D02*
X36797619Y-72738628D01*
X36797619Y-72738628D02*
X36607143Y-72691009D01*
X36607143Y-72691009D02*
X36511905Y-72643390D01*
X36511905Y-72643390D02*
X36464286Y-72595771D01*
X36464286Y-72595771D02*
X36416667Y-72500533D01*
X36416667Y-72500533D02*
X36416667Y-72405295D01*
X36416667Y-72405295D02*
X36464286Y-72310057D01*
X36464286Y-72310057D02*
X36511905Y-72262438D01*
X36511905Y-72262438D02*
X36607143Y-72214819D01*
X36607143Y-72214819D02*
X36845238Y-72214819D01*
X36845238Y-72214819D02*
X36988095Y-72262438D01*
X37321429Y-72214819D02*
X37559524Y-73214819D01*
X37559524Y-73214819D02*
X37750000Y-72500533D01*
X37750000Y-72500533D02*
X37940476Y-73214819D01*
X37940476Y-73214819D02*
X38178572Y-72214819D01*
X39083333Y-73214819D02*
X38511905Y-73214819D01*
X38797619Y-73214819D02*
X38797619Y-72214819D01*
X38797619Y-72214819D02*
X38702381Y-72357676D01*
X38702381Y-72357676D02*
X38607143Y-72452914D01*
X38607143Y-72452914D02*
X38511905Y-72500533D01*
X118725714Y-107074819D02*
X118154286Y-107074819D01*
X118440000Y-107074819D02*
X118440000Y-106074819D01*
X118440000Y-106074819D02*
X118344762Y-106217676D01*
X118344762Y-106217676D02*
X118249524Y-106312914D01*
X118249524Y-106312914D02*
X118154286Y-106360533D01*
X119344762Y-106074819D02*
X119440000Y-106074819D01*
X119440000Y-106074819D02*
X119535238Y-106122438D01*
X119535238Y-106122438D02*
X119582857Y-106170057D01*
X119582857Y-106170057D02*
X119630476Y-106265295D01*
X119630476Y-106265295D02*
X119678095Y-106455771D01*
X119678095Y-106455771D02*
X119678095Y-106693866D01*
X119678095Y-106693866D02*
X119630476Y-106884342D01*
X119630476Y-106884342D02*
X119582857Y-106979580D01*
X119582857Y-106979580D02*
X119535238Y-107027200D01*
X119535238Y-107027200D02*
X119440000Y-107074819D01*
X119440000Y-107074819D02*
X119344762Y-107074819D01*
X119344762Y-107074819D02*
X119249524Y-107027200D01*
X119249524Y-107027200D02*
X119201905Y-106979580D01*
X119201905Y-106979580D02*
X119154286Y-106884342D01*
X119154286Y-106884342D02*
X119106667Y-106693866D01*
X119106667Y-106693866D02*
X119106667Y-106455771D01*
X119106667Y-106455771D02*
X119154286Y-106265295D01*
X119154286Y-106265295D02*
X119201905Y-106170057D01*
X119201905Y-106170057D02*
X119249524Y-106122438D01*
X119249524Y-106122438D02*
X119344762Y-106074819D01*
X120297143Y-106074819D02*
X120392381Y-106074819D01*
X120392381Y-106074819D02*
X120487619Y-106122438D01*
X120487619Y-106122438D02*
X120535238Y-106170057D01*
X120535238Y-106170057D02*
X120582857Y-106265295D01*
X120582857Y-106265295D02*
X120630476Y-106455771D01*
X120630476Y-106455771D02*
X120630476Y-106693866D01*
X120630476Y-106693866D02*
X120582857Y-106884342D01*
X120582857Y-106884342D02*
X120535238Y-106979580D01*
X120535238Y-106979580D02*
X120487619Y-107027200D01*
X120487619Y-107027200D02*
X120392381Y-107074819D01*
X120392381Y-107074819D02*
X120297143Y-107074819D01*
X120297143Y-107074819D02*
X120201905Y-107027200D01*
X120201905Y-107027200D02*
X120154286Y-106979580D01*
X120154286Y-106979580D02*
X120106667Y-106884342D01*
X120106667Y-106884342D02*
X120059048Y-106693866D01*
X120059048Y-106693866D02*
X120059048Y-106455771D01*
X120059048Y-106455771D02*
X120106667Y-106265295D01*
X120106667Y-106265295D02*
X120154286Y-106170057D01*
X120154286Y-106170057D02*
X120201905Y-106122438D01*
X120201905Y-106122438D02*
X120297143Y-106074819D01*
X121011429Y-107074819D02*
X121249524Y-107074819D01*
X121249524Y-107074819D02*
X121249524Y-106884342D01*
X121249524Y-106884342D02*
X121154286Y-106836723D01*
X121154286Y-106836723D02*
X121059048Y-106741485D01*
X121059048Y-106741485D02*
X121011429Y-106598628D01*
X121011429Y-106598628D02*
X121011429Y-106360533D01*
X121011429Y-106360533D02*
X121059048Y-106217676D01*
X121059048Y-106217676D02*
X121154286Y-106122438D01*
X121154286Y-106122438D02*
X121297143Y-106074819D01*
X121297143Y-106074819D02*
X121487619Y-106074819D01*
X121487619Y-106074819D02*
X121630476Y-106122438D01*
X121630476Y-106122438D02*
X121725714Y-106217676D01*
X121725714Y-106217676D02*
X121773333Y-106360533D01*
X121773333Y-106360533D02*
X121773333Y-106598628D01*
X121773333Y-106598628D02*
X121725714Y-106741485D01*
X121725714Y-106741485D02*
X121630476Y-106836723D01*
X121630476Y-106836723D02*
X121535238Y-106884342D01*
X121535238Y-106884342D02*
X121535238Y-107074819D01*
X121535238Y-107074819D02*
X121773333Y-107074819D01*
X122106667Y-106074819D02*
X122725714Y-106074819D01*
X122725714Y-106074819D02*
X122392381Y-106455771D01*
X122392381Y-106455771D02*
X122535238Y-106455771D01*
X122535238Y-106455771D02*
X122630476Y-106503390D01*
X122630476Y-106503390D02*
X122678095Y-106551009D01*
X122678095Y-106551009D02*
X122725714Y-106646247D01*
X122725714Y-106646247D02*
X122725714Y-106884342D01*
X122725714Y-106884342D02*
X122678095Y-106979580D01*
X122678095Y-106979580D02*
X122630476Y-107027200D01*
X122630476Y-107027200D02*
X122535238Y-107074819D01*
X122535238Y-107074819D02*
X122249524Y-107074819D01*
X122249524Y-107074819D02*
X122154286Y-107027200D01*
X122154286Y-107027200D02*
X122106667Y-106979580D01*
X51364285Y-67054819D02*
X50888095Y-67054819D01*
X50888095Y-67054819D02*
X50840476Y-67531009D01*
X50840476Y-67531009D02*
X50888095Y-67483390D01*
X50888095Y-67483390D02*
X50983333Y-67435771D01*
X50983333Y-67435771D02*
X51221428Y-67435771D01*
X51221428Y-67435771D02*
X51316666Y-67483390D01*
X51316666Y-67483390D02*
X51364285Y-67531009D01*
X51364285Y-67531009D02*
X51411904Y-67626247D01*
X51411904Y-67626247D02*
X51411904Y-67864342D01*
X51411904Y-67864342D02*
X51364285Y-67959580D01*
X51364285Y-67959580D02*
X51316666Y-68007200D01*
X51316666Y-68007200D02*
X51221428Y-68054819D01*
X51221428Y-68054819D02*
X50983333Y-68054819D01*
X50983333Y-68054819D02*
X50888095Y-68007200D01*
X50888095Y-68007200D02*
X50840476Y-67959580D01*
X51697619Y-67054819D02*
X52030952Y-68054819D01*
X52030952Y-68054819D02*
X52364285Y-67054819D01*
X52697619Y-67673866D02*
X53459524Y-67673866D01*
X53078571Y-68054819D02*
X53078571Y-67292914D01*
X54459523Y-68054819D02*
X53888095Y-68054819D01*
X54173809Y-68054819D02*
X54173809Y-67054819D01*
X54173809Y-67054819D02*
X54078571Y-67197676D01*
X54078571Y-67197676D02*
X53983333Y-67292914D01*
X53983333Y-67292914D02*
X53888095Y-67340533D01*
X91927819Y-64579285D02*
X90927819Y-64579285D01*
X90927819Y-64579285D02*
X90927819Y-64341190D01*
X90927819Y-64341190D02*
X90975438Y-64198333D01*
X90975438Y-64198333D02*
X91070676Y-64103095D01*
X91070676Y-64103095D02*
X91165914Y-64055476D01*
X91165914Y-64055476D02*
X91356390Y-64007857D01*
X91356390Y-64007857D02*
X91499247Y-64007857D01*
X91499247Y-64007857D02*
X91689723Y-64055476D01*
X91689723Y-64055476D02*
X91784961Y-64103095D01*
X91784961Y-64103095D02*
X91880200Y-64198333D01*
X91880200Y-64198333D02*
X91927819Y-64341190D01*
X91927819Y-64341190D02*
X91927819Y-64579285D01*
X91880200Y-63626904D02*
X91927819Y-63484047D01*
X91927819Y-63484047D02*
X91927819Y-63245952D01*
X91927819Y-63245952D02*
X91880200Y-63150714D01*
X91880200Y-63150714D02*
X91832580Y-63103095D01*
X91832580Y-63103095D02*
X91737342Y-63055476D01*
X91737342Y-63055476D02*
X91642104Y-63055476D01*
X91642104Y-63055476D02*
X91546866Y-63103095D01*
X91546866Y-63103095D02*
X91499247Y-63150714D01*
X91499247Y-63150714D02*
X91451628Y-63245952D01*
X91451628Y-63245952D02*
X91404009Y-63436428D01*
X91404009Y-63436428D02*
X91356390Y-63531666D01*
X91356390Y-63531666D02*
X91308771Y-63579285D01*
X91308771Y-63579285D02*
X91213533Y-63626904D01*
X91213533Y-63626904D02*
X91118295Y-63626904D01*
X91118295Y-63626904D02*
X91023057Y-63579285D01*
X91023057Y-63579285D02*
X90975438Y-63531666D01*
X90975438Y-63531666D02*
X90927819Y-63436428D01*
X90927819Y-63436428D02*
X90927819Y-63198333D01*
X90927819Y-63198333D02*
X90975438Y-63055476D01*
X91927819Y-62626904D02*
X90927819Y-62626904D01*
X90927819Y-62626904D02*
X90927819Y-62245952D01*
X90927819Y-62245952D02*
X90975438Y-62150714D01*
X90975438Y-62150714D02*
X91023057Y-62103095D01*
X91023057Y-62103095D02*
X91118295Y-62055476D01*
X91118295Y-62055476D02*
X91261152Y-62055476D01*
X91261152Y-62055476D02*
X91356390Y-62103095D01*
X91356390Y-62103095D02*
X91404009Y-62150714D01*
X91404009Y-62150714D02*
X91451628Y-62245952D01*
X91451628Y-62245952D02*
X91451628Y-62626904D01*
X91927819Y-61103095D02*
X91927819Y-61674523D01*
X91927819Y-61388809D02*
X90927819Y-61388809D01*
X90927819Y-61388809D02*
X91070676Y-61484047D01*
X91070676Y-61484047D02*
X91165914Y-61579285D01*
X91165914Y-61579285D02*
X91213533Y-61674523D01*
X104325714Y-108174819D02*
X103754286Y-108174819D01*
X104040000Y-108174819D02*
X104040000Y-107174819D01*
X104040000Y-107174819D02*
X103944762Y-107317676D01*
X103944762Y-107317676D02*
X103849524Y-107412914D01*
X103849524Y-107412914D02*
X103754286Y-107460533D01*
X104944762Y-107174819D02*
X105040000Y-107174819D01*
X105040000Y-107174819D02*
X105135238Y-107222438D01*
X105135238Y-107222438D02*
X105182857Y-107270057D01*
X105182857Y-107270057D02*
X105230476Y-107365295D01*
X105230476Y-107365295D02*
X105278095Y-107555771D01*
X105278095Y-107555771D02*
X105278095Y-107793866D01*
X105278095Y-107793866D02*
X105230476Y-107984342D01*
X105230476Y-107984342D02*
X105182857Y-108079580D01*
X105182857Y-108079580D02*
X105135238Y-108127200D01*
X105135238Y-108127200D02*
X105040000Y-108174819D01*
X105040000Y-108174819D02*
X104944762Y-108174819D01*
X104944762Y-108174819D02*
X104849524Y-108127200D01*
X104849524Y-108127200D02*
X104801905Y-108079580D01*
X104801905Y-108079580D02*
X104754286Y-107984342D01*
X104754286Y-107984342D02*
X104706667Y-107793866D01*
X104706667Y-107793866D02*
X104706667Y-107555771D01*
X104706667Y-107555771D02*
X104754286Y-107365295D01*
X104754286Y-107365295D02*
X104801905Y-107270057D01*
X104801905Y-107270057D02*
X104849524Y-107222438D01*
X104849524Y-107222438D02*
X104944762Y-107174819D01*
X105897143Y-107174819D02*
X105992381Y-107174819D01*
X105992381Y-107174819D02*
X106087619Y-107222438D01*
X106087619Y-107222438D02*
X106135238Y-107270057D01*
X106135238Y-107270057D02*
X106182857Y-107365295D01*
X106182857Y-107365295D02*
X106230476Y-107555771D01*
X106230476Y-107555771D02*
X106230476Y-107793866D01*
X106230476Y-107793866D02*
X106182857Y-107984342D01*
X106182857Y-107984342D02*
X106135238Y-108079580D01*
X106135238Y-108079580D02*
X106087619Y-108127200D01*
X106087619Y-108127200D02*
X105992381Y-108174819D01*
X105992381Y-108174819D02*
X105897143Y-108174819D01*
X105897143Y-108174819D02*
X105801905Y-108127200D01*
X105801905Y-108127200D02*
X105754286Y-108079580D01*
X105754286Y-108079580D02*
X105706667Y-107984342D01*
X105706667Y-107984342D02*
X105659048Y-107793866D01*
X105659048Y-107793866D02*
X105659048Y-107555771D01*
X105659048Y-107555771D02*
X105706667Y-107365295D01*
X105706667Y-107365295D02*
X105754286Y-107270057D01*
X105754286Y-107270057D02*
X105801905Y-107222438D01*
X105801905Y-107222438D02*
X105897143Y-107174819D01*
X106611429Y-108174819D02*
X106849524Y-108174819D01*
X106849524Y-108174819D02*
X106849524Y-107984342D01*
X106849524Y-107984342D02*
X106754286Y-107936723D01*
X106754286Y-107936723D02*
X106659048Y-107841485D01*
X106659048Y-107841485D02*
X106611429Y-107698628D01*
X106611429Y-107698628D02*
X106611429Y-107460533D01*
X106611429Y-107460533D02*
X106659048Y-107317676D01*
X106659048Y-107317676D02*
X106754286Y-107222438D01*
X106754286Y-107222438D02*
X106897143Y-107174819D01*
X106897143Y-107174819D02*
X107087619Y-107174819D01*
X107087619Y-107174819D02*
X107230476Y-107222438D01*
X107230476Y-107222438D02*
X107325714Y-107317676D01*
X107325714Y-107317676D02*
X107373333Y-107460533D01*
X107373333Y-107460533D02*
X107373333Y-107698628D01*
X107373333Y-107698628D02*
X107325714Y-107841485D01*
X107325714Y-107841485D02*
X107230476Y-107936723D01*
X107230476Y-107936723D02*
X107135238Y-107984342D01*
X107135238Y-107984342D02*
X107135238Y-108174819D01*
X107135238Y-108174819D02*
X107373333Y-108174819D01*
X107754286Y-107270057D02*
X107801905Y-107222438D01*
X107801905Y-107222438D02*
X107897143Y-107174819D01*
X107897143Y-107174819D02*
X108135238Y-107174819D01*
X108135238Y-107174819D02*
X108230476Y-107222438D01*
X108230476Y-107222438D02*
X108278095Y-107270057D01*
X108278095Y-107270057D02*
X108325714Y-107365295D01*
X108325714Y-107365295D02*
X108325714Y-107460533D01*
X108325714Y-107460533D02*
X108278095Y-107603390D01*
X108278095Y-107603390D02*
X107706667Y-108174819D01*
X107706667Y-108174819D02*
X108325714Y-108174819D01*
X129460810Y-78813819D02*
X129460810Y-77813819D01*
X129460810Y-77813819D02*
X129794143Y-78528104D01*
X129794143Y-78528104D02*
X130127476Y-77813819D01*
X130127476Y-77813819D02*
X130127476Y-78813819D01*
X130603667Y-78813819D02*
X130603667Y-78147152D01*
X130603667Y-77813819D02*
X130556048Y-77861438D01*
X130556048Y-77861438D02*
X130603667Y-77909057D01*
X130603667Y-77909057D02*
X130651286Y-77861438D01*
X130651286Y-77861438D02*
X130603667Y-77813819D01*
X130603667Y-77813819D02*
X130603667Y-77909057D01*
X131508428Y-78766200D02*
X131413190Y-78813819D01*
X131413190Y-78813819D02*
X131222714Y-78813819D01*
X131222714Y-78813819D02*
X131127476Y-78766200D01*
X131127476Y-78766200D02*
X131079857Y-78718580D01*
X131079857Y-78718580D02*
X131032238Y-78623342D01*
X131032238Y-78623342D02*
X131032238Y-78337628D01*
X131032238Y-78337628D02*
X131079857Y-78242390D01*
X131079857Y-78242390D02*
X131127476Y-78194771D01*
X131127476Y-78194771D02*
X131222714Y-78147152D01*
X131222714Y-78147152D02*
X131413190Y-78147152D01*
X131413190Y-78147152D02*
X131508428Y-78194771D01*
X132460809Y-78813819D02*
X131889381Y-78813819D01*
X132175095Y-78813819D02*
X132175095Y-77813819D01*
X132175095Y-77813819D02*
X132079857Y-77956676D01*
X132079857Y-77956676D02*
X131984619Y-78051914D01*
X131984619Y-78051914D02*
X131889381Y-78099533D01*
X49175714Y-120434819D02*
X48604286Y-120434819D01*
X48890000Y-120434819D02*
X48890000Y-119434819D01*
X48890000Y-119434819D02*
X48794762Y-119577676D01*
X48794762Y-119577676D02*
X48699524Y-119672914D01*
X48699524Y-119672914D02*
X48604286Y-119720533D01*
X49794762Y-119434819D02*
X49890000Y-119434819D01*
X49890000Y-119434819D02*
X49985238Y-119482438D01*
X49985238Y-119482438D02*
X50032857Y-119530057D01*
X50032857Y-119530057D02*
X50080476Y-119625295D01*
X50080476Y-119625295D02*
X50128095Y-119815771D01*
X50128095Y-119815771D02*
X50128095Y-120053866D01*
X50128095Y-120053866D02*
X50080476Y-120244342D01*
X50080476Y-120244342D02*
X50032857Y-120339580D01*
X50032857Y-120339580D02*
X49985238Y-120387200D01*
X49985238Y-120387200D02*
X49890000Y-120434819D01*
X49890000Y-120434819D02*
X49794762Y-120434819D01*
X49794762Y-120434819D02*
X49699524Y-120387200D01*
X49699524Y-120387200D02*
X49651905Y-120339580D01*
X49651905Y-120339580D02*
X49604286Y-120244342D01*
X49604286Y-120244342D02*
X49556667Y-120053866D01*
X49556667Y-120053866D02*
X49556667Y-119815771D01*
X49556667Y-119815771D02*
X49604286Y-119625295D01*
X49604286Y-119625295D02*
X49651905Y-119530057D01*
X49651905Y-119530057D02*
X49699524Y-119482438D01*
X49699524Y-119482438D02*
X49794762Y-119434819D01*
X50747143Y-119434819D02*
X50842381Y-119434819D01*
X50842381Y-119434819D02*
X50937619Y-119482438D01*
X50937619Y-119482438D02*
X50985238Y-119530057D01*
X50985238Y-119530057D02*
X51032857Y-119625295D01*
X51032857Y-119625295D02*
X51080476Y-119815771D01*
X51080476Y-119815771D02*
X51080476Y-120053866D01*
X51080476Y-120053866D02*
X51032857Y-120244342D01*
X51032857Y-120244342D02*
X50985238Y-120339580D01*
X50985238Y-120339580D02*
X50937619Y-120387200D01*
X50937619Y-120387200D02*
X50842381Y-120434819D01*
X50842381Y-120434819D02*
X50747143Y-120434819D01*
X50747143Y-120434819D02*
X50651905Y-120387200D01*
X50651905Y-120387200D02*
X50604286Y-120339580D01*
X50604286Y-120339580D02*
X50556667Y-120244342D01*
X50556667Y-120244342D02*
X50509048Y-120053866D01*
X50509048Y-120053866D02*
X50509048Y-119815771D01*
X50509048Y-119815771D02*
X50556667Y-119625295D01*
X50556667Y-119625295D02*
X50604286Y-119530057D01*
X50604286Y-119530057D02*
X50651905Y-119482438D01*
X50651905Y-119482438D02*
X50747143Y-119434819D01*
X51461429Y-120434819D02*
X51699524Y-120434819D01*
X51699524Y-120434819D02*
X51699524Y-120244342D01*
X51699524Y-120244342D02*
X51604286Y-120196723D01*
X51604286Y-120196723D02*
X51509048Y-120101485D01*
X51509048Y-120101485D02*
X51461429Y-119958628D01*
X51461429Y-119958628D02*
X51461429Y-119720533D01*
X51461429Y-119720533D02*
X51509048Y-119577676D01*
X51509048Y-119577676D02*
X51604286Y-119482438D01*
X51604286Y-119482438D02*
X51747143Y-119434819D01*
X51747143Y-119434819D02*
X51937619Y-119434819D01*
X51937619Y-119434819D02*
X52080476Y-119482438D01*
X52080476Y-119482438D02*
X52175714Y-119577676D01*
X52175714Y-119577676D02*
X52223333Y-119720533D01*
X52223333Y-119720533D02*
X52223333Y-119958628D01*
X52223333Y-119958628D02*
X52175714Y-120101485D01*
X52175714Y-120101485D02*
X52080476Y-120196723D01*
X52080476Y-120196723D02*
X51985238Y-120244342D01*
X51985238Y-120244342D02*
X51985238Y-120434819D01*
X51985238Y-120434819D02*
X52223333Y-120434819D01*
X53175714Y-120434819D02*
X52604286Y-120434819D01*
X52890000Y-120434819D02*
X52890000Y-119434819D01*
X52890000Y-119434819D02*
X52794762Y-119577676D01*
X52794762Y-119577676D02*
X52699524Y-119672914D01*
X52699524Y-119672914D02*
X52604286Y-119720533D01*
X100978921Y-94809580D02*
X100931302Y-94857200D01*
X100931302Y-94857200D02*
X100788445Y-94904819D01*
X100788445Y-94904819D02*
X100693207Y-94904819D01*
X100693207Y-94904819D02*
X100550350Y-94857200D01*
X100550350Y-94857200D02*
X100455112Y-94761961D01*
X100455112Y-94761961D02*
X100407493Y-94666723D01*
X100407493Y-94666723D02*
X100359874Y-94476247D01*
X100359874Y-94476247D02*
X100359874Y-94333390D01*
X100359874Y-94333390D02*
X100407493Y-94142914D01*
X100407493Y-94142914D02*
X100455112Y-94047676D01*
X100455112Y-94047676D02*
X100550350Y-93952438D01*
X100550350Y-93952438D02*
X100693207Y-93904819D01*
X100693207Y-93904819D02*
X100788445Y-93904819D01*
X100788445Y-93904819D02*
X100931302Y-93952438D01*
X100931302Y-93952438D02*
X100978921Y-94000057D01*
X101931302Y-94904819D02*
X101359874Y-94904819D01*
X101645588Y-94904819D02*
X101645588Y-93904819D01*
X101645588Y-93904819D02*
X101550350Y-94047676D01*
X101550350Y-94047676D02*
X101455112Y-94142914D01*
X101455112Y-94142914D02*
X101359874Y-94190533D01*
X102645588Y-95238152D02*
X102407493Y-95238152D01*
X102407493Y-95238152D02*
X102407493Y-93809580D01*
X102407493Y-93809580D02*
X102645588Y-93809580D01*
X103550350Y-94904819D02*
X102978922Y-94904819D01*
X103264636Y-94904819D02*
X103264636Y-93904819D01*
X103264636Y-93904819D02*
X103169398Y-94047676D01*
X103169398Y-94047676D02*
X103074160Y-94142914D01*
X103074160Y-94142914D02*
X102978922Y-94190533D01*
X104169398Y-93904819D02*
X104264636Y-93904819D01*
X104264636Y-93904819D02*
X104359874Y-93952438D01*
X104359874Y-93952438D02*
X104407493Y-94000057D01*
X104407493Y-94000057D02*
X104455112Y-94095295D01*
X104455112Y-94095295D02*
X104502731Y-94285771D01*
X104502731Y-94285771D02*
X104502731Y-94523866D01*
X104502731Y-94523866D02*
X104455112Y-94714342D01*
X104455112Y-94714342D02*
X104407493Y-94809580D01*
X104407493Y-94809580D02*
X104359874Y-94857200D01*
X104359874Y-94857200D02*
X104264636Y-94904819D01*
X104264636Y-94904819D02*
X104169398Y-94904819D01*
X104169398Y-94904819D02*
X104074160Y-94857200D01*
X104074160Y-94857200D02*
X104026541Y-94809580D01*
X104026541Y-94809580D02*
X103978922Y-94714342D01*
X103978922Y-94714342D02*
X103931303Y-94523866D01*
X103931303Y-94523866D02*
X103931303Y-94285771D01*
X103931303Y-94285771D02*
X103978922Y-94095295D01*
X103978922Y-94095295D02*
X104026541Y-94000057D01*
X104026541Y-94000057D02*
X104074160Y-93952438D01*
X104074160Y-93952438D02*
X104169398Y-93904819D01*
X105121779Y-93904819D02*
X105217017Y-93904819D01*
X105217017Y-93904819D02*
X105312255Y-93952438D01*
X105312255Y-93952438D02*
X105359874Y-94000057D01*
X105359874Y-94000057D02*
X105407493Y-94095295D01*
X105407493Y-94095295D02*
X105455112Y-94285771D01*
X105455112Y-94285771D02*
X105455112Y-94523866D01*
X105455112Y-94523866D02*
X105407493Y-94714342D01*
X105407493Y-94714342D02*
X105359874Y-94809580D01*
X105359874Y-94809580D02*
X105312255Y-94857200D01*
X105312255Y-94857200D02*
X105217017Y-94904819D01*
X105217017Y-94904819D02*
X105121779Y-94904819D01*
X105121779Y-94904819D02*
X105026541Y-94857200D01*
X105026541Y-94857200D02*
X104978922Y-94809580D01*
X104978922Y-94809580D02*
X104931303Y-94714342D01*
X104931303Y-94714342D02*
X104883684Y-94523866D01*
X104883684Y-94523866D02*
X104883684Y-94285771D01*
X104883684Y-94285771D02*
X104931303Y-94095295D01*
X104931303Y-94095295D02*
X104978922Y-94000057D01*
X104978922Y-94000057D02*
X105026541Y-93952438D01*
X105026541Y-93952438D02*
X105121779Y-93904819D01*
X106312255Y-94238152D02*
X106312255Y-94904819D01*
X105883684Y-94238152D02*
X105883684Y-94761961D01*
X105883684Y-94761961D02*
X105931303Y-94857200D01*
X105931303Y-94857200D02*
X106026541Y-94904819D01*
X106026541Y-94904819D02*
X106169398Y-94904819D01*
X106169398Y-94904819D02*
X106264636Y-94857200D01*
X106264636Y-94857200D02*
X106312255Y-94809580D01*
X106645589Y-94238152D02*
X107026541Y-94238152D01*
X106788446Y-94904819D02*
X106788446Y-94047676D01*
X106788446Y-94047676D02*
X106836065Y-93952438D01*
X106836065Y-93952438D02*
X106931303Y-93904819D01*
X106931303Y-93904819D02*
X107026541Y-93904819D01*
X107264637Y-95238152D02*
X107502732Y-95238152D01*
X107502732Y-95238152D02*
X107502732Y-93809580D01*
X107502732Y-93809580D02*
X107264637Y-93809580D01*
X107978923Y-94000057D02*
X108026542Y-93952438D01*
X108026542Y-93952438D02*
X108121780Y-93904819D01*
X108121780Y-93904819D02*
X108359875Y-93904819D01*
X108359875Y-93904819D02*
X108455113Y-93952438D01*
X108455113Y-93952438D02*
X108502732Y-94000057D01*
X108502732Y-94000057D02*
X108550351Y-94095295D01*
X108550351Y-94095295D02*
X108550351Y-94190533D01*
X108550351Y-94190533D02*
X108502732Y-94333390D01*
X108502732Y-94333390D02*
X107931304Y-94904819D01*
X107931304Y-94904819D02*
X108550351Y-94904819D01*
X105661905Y-124104819D02*
X105661905Y-123104819D01*
X105661905Y-123104819D02*
X105900000Y-123104819D01*
X105900000Y-123104819D02*
X106042857Y-123152438D01*
X106042857Y-123152438D02*
X106138095Y-123247676D01*
X106138095Y-123247676D02*
X106185714Y-123342914D01*
X106185714Y-123342914D02*
X106233333Y-123533390D01*
X106233333Y-123533390D02*
X106233333Y-123676247D01*
X106233333Y-123676247D02*
X106185714Y-123866723D01*
X106185714Y-123866723D02*
X106138095Y-123961961D01*
X106138095Y-123961961D02*
X106042857Y-124057200D01*
X106042857Y-124057200D02*
X105900000Y-124104819D01*
X105900000Y-124104819D02*
X105661905Y-124104819D01*
X106566667Y-123104819D02*
X107185714Y-123104819D01*
X107185714Y-123104819D02*
X106852381Y-123485771D01*
X106852381Y-123485771D02*
X106995238Y-123485771D01*
X106995238Y-123485771D02*
X107090476Y-123533390D01*
X107090476Y-123533390D02*
X107138095Y-123581009D01*
X107138095Y-123581009D02*
X107185714Y-123676247D01*
X107185714Y-123676247D02*
X107185714Y-123914342D01*
X107185714Y-123914342D02*
X107138095Y-124009580D01*
X107138095Y-124009580D02*
X107090476Y-124057200D01*
X107090476Y-124057200D02*
X106995238Y-124104819D01*
X106995238Y-124104819D02*
X106709524Y-124104819D01*
X106709524Y-124104819D02*
X106614286Y-124057200D01*
X106614286Y-124057200D02*
X106566667Y-124009580D01*
X58114285Y-67254819D02*
X57638095Y-67254819D01*
X57638095Y-67254819D02*
X57590476Y-67731009D01*
X57590476Y-67731009D02*
X57638095Y-67683390D01*
X57638095Y-67683390D02*
X57733333Y-67635771D01*
X57733333Y-67635771D02*
X57971428Y-67635771D01*
X57971428Y-67635771D02*
X58066666Y-67683390D01*
X58066666Y-67683390D02*
X58114285Y-67731009D01*
X58114285Y-67731009D02*
X58161904Y-67826247D01*
X58161904Y-67826247D02*
X58161904Y-68064342D01*
X58161904Y-68064342D02*
X58114285Y-68159580D01*
X58114285Y-68159580D02*
X58066666Y-68207200D01*
X58066666Y-68207200D02*
X57971428Y-68254819D01*
X57971428Y-68254819D02*
X57733333Y-68254819D01*
X57733333Y-68254819D02*
X57638095Y-68207200D01*
X57638095Y-68207200D02*
X57590476Y-68159580D01*
X58447619Y-67254819D02*
X58780952Y-68254819D01*
X58780952Y-68254819D02*
X59114285Y-67254819D01*
X59447619Y-67873866D02*
X60209524Y-67873866D01*
X61209523Y-68254819D02*
X60638095Y-68254819D01*
X60923809Y-68254819D02*
X60923809Y-67254819D01*
X60923809Y-67254819D02*
X60828571Y-67397676D01*
X60828571Y-67397676D02*
X60733333Y-67492914D01*
X60733333Y-67492914D02*
X60638095Y-67540533D01*
X36204819Y-123513094D02*
X35204819Y-123513094D01*
X35204819Y-123513094D02*
X35204819Y-123274999D01*
X35204819Y-123274999D02*
X35252438Y-123132142D01*
X35252438Y-123132142D02*
X35347676Y-123036904D01*
X35347676Y-123036904D02*
X35442914Y-122989285D01*
X35442914Y-122989285D02*
X35633390Y-122941666D01*
X35633390Y-122941666D02*
X35776247Y-122941666D01*
X35776247Y-122941666D02*
X35966723Y-122989285D01*
X35966723Y-122989285D02*
X36061961Y-123036904D01*
X36061961Y-123036904D02*
X36157200Y-123132142D01*
X36157200Y-123132142D02*
X36204819Y-123274999D01*
X36204819Y-123274999D02*
X36204819Y-123513094D01*
X36204819Y-121989285D02*
X36204819Y-122560713D01*
X36204819Y-122274999D02*
X35204819Y-122274999D01*
X35204819Y-122274999D02*
X35347676Y-122370237D01*
X35347676Y-122370237D02*
X35442914Y-122465475D01*
X35442914Y-122465475D02*
X35490533Y-122560713D01*
X130038763Y-93356580D02*
X130181620Y-93404199D01*
X130181620Y-93404199D02*
X130419715Y-93404199D01*
X130419715Y-93404199D02*
X130514953Y-93356580D01*
X130514953Y-93356580D02*
X130562572Y-93308960D01*
X130562572Y-93308960D02*
X130610191Y-93213722D01*
X130610191Y-93213722D02*
X130610191Y-93118484D01*
X130610191Y-93118484D02*
X130562572Y-93023246D01*
X130562572Y-93023246D02*
X130514953Y-92975627D01*
X130514953Y-92975627D02*
X130419715Y-92928008D01*
X130419715Y-92928008D02*
X130229239Y-92880389D01*
X130229239Y-92880389D02*
X130134001Y-92832770D01*
X130134001Y-92832770D02*
X130086382Y-92785151D01*
X130086382Y-92785151D02*
X130038763Y-92689913D01*
X130038763Y-92689913D02*
X130038763Y-92594675D01*
X130038763Y-92594675D02*
X130086382Y-92499437D01*
X130086382Y-92499437D02*
X130134001Y-92451818D01*
X130134001Y-92451818D02*
X130229239Y-92404199D01*
X130229239Y-92404199D02*
X130467334Y-92404199D01*
X130467334Y-92404199D02*
X130610191Y-92451818D01*
X130800668Y-93499437D02*
X131562572Y-93499437D01*
X131705430Y-92404199D02*
X132324477Y-92404199D01*
X132324477Y-92404199D02*
X131991144Y-92785151D01*
X131991144Y-92785151D02*
X132134001Y-92785151D01*
X132134001Y-92785151D02*
X132229239Y-92832770D01*
X132229239Y-92832770D02*
X132276858Y-92880389D01*
X132276858Y-92880389D02*
X132324477Y-92975627D01*
X132324477Y-92975627D02*
X132324477Y-93213722D01*
X132324477Y-93213722D02*
X132276858Y-93308960D01*
X132276858Y-93308960D02*
X132229239Y-93356580D01*
X132229239Y-93356580D02*
X132134001Y-93404199D01*
X132134001Y-93404199D02*
X131848287Y-93404199D01*
X131848287Y-93404199D02*
X131753049Y-93356580D01*
X131753049Y-93356580D02*
X131705430Y-93308960D01*
X71195104Y-65031713D02*
X71195104Y-64555523D01*
X71480819Y-65126951D02*
X70480819Y-64793618D01*
X70480819Y-64793618D02*
X71480819Y-64460285D01*
X71480819Y-64126951D02*
X70480819Y-64126951D01*
X70480819Y-64126951D02*
X71195104Y-63793618D01*
X71195104Y-63793618D02*
X70480819Y-63460285D01*
X70480819Y-63460285D02*
X71480819Y-63460285D01*
X71480819Y-62984094D02*
X70480819Y-62984094D01*
X70480819Y-62984094D02*
X70480819Y-62603142D01*
X70480819Y-62603142D02*
X70528438Y-62507904D01*
X70528438Y-62507904D02*
X70576057Y-62460285D01*
X70576057Y-62460285D02*
X70671295Y-62412666D01*
X70671295Y-62412666D02*
X70814152Y-62412666D01*
X70814152Y-62412666D02*
X70909390Y-62460285D01*
X70909390Y-62460285D02*
X70957009Y-62507904D01*
X70957009Y-62507904D02*
X71004628Y-62603142D01*
X71004628Y-62603142D02*
X71004628Y-62984094D01*
X71480819Y-61460285D02*
X71480819Y-62031713D01*
X71480819Y-61745999D02*
X70480819Y-61745999D01*
X70480819Y-61745999D02*
X70623676Y-61841237D01*
X70623676Y-61841237D02*
X70718914Y-61936475D01*
X70718914Y-61936475D02*
X70766533Y-62031713D01*
X130007143Y-104177200D02*
X130150000Y-104224819D01*
X130150000Y-104224819D02*
X130388095Y-104224819D01*
X130388095Y-104224819D02*
X130483333Y-104177200D01*
X130483333Y-104177200D02*
X130530952Y-104129580D01*
X130530952Y-104129580D02*
X130578571Y-104034342D01*
X130578571Y-104034342D02*
X130578571Y-103939104D01*
X130578571Y-103939104D02*
X130530952Y-103843866D01*
X130530952Y-103843866D02*
X130483333Y-103796247D01*
X130483333Y-103796247D02*
X130388095Y-103748628D01*
X130388095Y-103748628D02*
X130197619Y-103701009D01*
X130197619Y-103701009D02*
X130102381Y-103653390D01*
X130102381Y-103653390D02*
X130054762Y-103605771D01*
X130054762Y-103605771D02*
X130007143Y-103510533D01*
X130007143Y-103510533D02*
X130007143Y-103415295D01*
X130007143Y-103415295D02*
X130054762Y-103320057D01*
X130054762Y-103320057D02*
X130102381Y-103272438D01*
X130102381Y-103272438D02*
X130197619Y-103224819D01*
X130197619Y-103224819D02*
X130435714Y-103224819D01*
X130435714Y-103224819D02*
X130578571Y-103272438D01*
X130769048Y-104320057D02*
X131530952Y-104320057D01*
X131721429Y-103320057D02*
X131769048Y-103272438D01*
X131769048Y-103272438D02*
X131864286Y-103224819D01*
X131864286Y-103224819D02*
X132102381Y-103224819D01*
X132102381Y-103224819D02*
X132197619Y-103272438D01*
X132197619Y-103272438D02*
X132245238Y-103320057D01*
X132245238Y-103320057D02*
X132292857Y-103415295D01*
X132292857Y-103415295D02*
X132292857Y-103510533D01*
X132292857Y-103510533D02*
X132245238Y-103653390D01*
X132245238Y-103653390D02*
X131673810Y-104224819D01*
X131673810Y-104224819D02*
X132292857Y-104224819D01*
X129667143Y-82101200D02*
X129810000Y-82148819D01*
X129810000Y-82148819D02*
X130048095Y-82148819D01*
X130048095Y-82148819D02*
X130143333Y-82101200D01*
X130143333Y-82101200D02*
X130190952Y-82053580D01*
X130190952Y-82053580D02*
X130238571Y-81958342D01*
X130238571Y-81958342D02*
X130238571Y-81863104D01*
X130238571Y-81863104D02*
X130190952Y-81767866D01*
X130190952Y-81767866D02*
X130143333Y-81720247D01*
X130143333Y-81720247D02*
X130048095Y-81672628D01*
X130048095Y-81672628D02*
X129857619Y-81625009D01*
X129857619Y-81625009D02*
X129762381Y-81577390D01*
X129762381Y-81577390D02*
X129714762Y-81529771D01*
X129714762Y-81529771D02*
X129667143Y-81434533D01*
X129667143Y-81434533D02*
X129667143Y-81339295D01*
X129667143Y-81339295D02*
X129714762Y-81244057D01*
X129714762Y-81244057D02*
X129762381Y-81196438D01*
X129762381Y-81196438D02*
X129857619Y-81148819D01*
X129857619Y-81148819D02*
X130095714Y-81148819D01*
X130095714Y-81148819D02*
X130238571Y-81196438D01*
X130429048Y-82244057D02*
X131190952Y-82244057D01*
X131952857Y-82148819D02*
X131381429Y-82148819D01*
X131667143Y-82148819D02*
X131667143Y-81148819D01*
X131667143Y-81148819D02*
X131571905Y-81291676D01*
X131571905Y-81291676D02*
X131476667Y-81386914D01*
X131476667Y-81386914D02*
X131381429Y-81434533D01*
D12*
%TO.C,Ts1*%
X120396000Y-61485000D02*
X125586000Y-61485000D01*
X125586000Y-64245000D02*
X125586000Y-61485000D01*
X120396000Y-64245000D02*
X120396000Y-61485000D01*
X120396000Y-64245000D02*
X125586000Y-64245000D01*
X119126000Y-64245000D02*
X117746000Y-64245000D01*
X117746000Y-64245000D02*
X117746000Y-62865000D01*
D13*
%TO.C,U1*%
X35340000Y-83870000D02*
X86290000Y-83870000D01*
X35340000Y-83870000D02*
X86290000Y-83870000D01*
X35340000Y-94600000D02*
X35340000Y-83870000D01*
X35340000Y-101311000D02*
X35340000Y-94600000D01*
X35340000Y-112380000D02*
X35340000Y-83870000D01*
X35340000Y-112380000D02*
X35340000Y-101311000D01*
X86290000Y-83870000D02*
X86290000Y-112380000D01*
X86290000Y-89320000D02*
X86290000Y-83870000D01*
X86290000Y-107010000D02*
X86290000Y-89320000D01*
X86290000Y-112380000D02*
X35340000Y-112380000D01*
X86290000Y-112380000D02*
X35340000Y-112380000D01*
X86290000Y-112380000D02*
X86290000Y-107010000D01*
D14*
X45400000Y-112950000D02*
G75*
G02*
X45200000Y-112950000I-100000J0D01*
G01*
X45200000Y-112950000D02*
G75*
G02*
X45400000Y-112950000I100000J0D01*
G01*
D12*
%TO.C,D2*%
X124180000Y-117900000D02*
G75*
G02*
X119180000Y-117900000I-2500000J0D01*
G01*
X119180000Y-117900000D02*
G75*
G02*
X124180000Y-117900000I2500000J0D01*
G01*
X124670000Y-117900000D02*
G75*
G02*
X119120000Y-119444830I-2990000J0D01*
G01*
X119120000Y-116355170D02*
G75*
G02*
X124670000Y-117900000I2560000J-1544830D01*
G01*
X119120000Y-116355000D02*
X119120000Y-119445000D01*
%TO.C,D5*%
X116530000Y-117900000D02*
G75*
G02*
X111530000Y-117900000I-2500000J0D01*
G01*
X111530000Y-117900000D02*
G75*
G02*
X116530000Y-117900000I2500000J0D01*
G01*
X117020000Y-117900000D02*
G75*
G02*
X111470000Y-119444830I-2990000J0D01*
G01*
X111470000Y-116355170D02*
G75*
G02*
X117020000Y-117900000I2560000J-1544830D01*
G01*
X111470000Y-116355000D02*
X111470000Y-119445000D01*
%TO.C,D4*%
X127170000Y-116305000D02*
X127170000Y-119395000D01*
X127170000Y-116305170D02*
G75*
G02*
X132720000Y-117850000I2560000J-1544830D01*
G01*
X132720000Y-117850000D02*
G75*
G02*
X127170000Y-119394830I-2990000J0D01*
G01*
X132230000Y-117850000D02*
G75*
G02*
X127230000Y-117850000I-2500000J0D01*
G01*
X127230000Y-117850000D02*
G75*
G02*
X132230000Y-117850000I2500000J0D01*
G01*
%TO.C,SW1*%
X36370000Y-65920000D02*
X37750000Y-65920000D01*
X36370000Y-67300000D02*
X36370000Y-65920000D01*
X36370000Y-68570000D02*
X36370000Y-71220000D01*
X36370000Y-68570000D02*
X39130000Y-68570000D01*
X36370000Y-71220000D02*
X39130000Y-71220000D01*
X39130000Y-68570000D02*
X39130000Y-71220000D01*
%TO.C,100\u03A93*%
X117170000Y-102880000D02*
X117170000Y-103210000D01*
X117170000Y-105620000D02*
X117170000Y-105290000D01*
X123710000Y-102880000D02*
X117170000Y-102880000D01*
X123710000Y-103210000D02*
X123710000Y-102880000D01*
X123710000Y-105290000D02*
X123710000Y-105620000D01*
X123710000Y-105620000D02*
X117170000Y-105620000D01*
%TO.C,5V+1*%
X50450000Y-61600000D02*
X54850000Y-61600000D01*
X50450000Y-66000000D02*
X50450000Y-61600000D01*
X54850000Y-61600000D02*
X54850000Y-66000000D01*
X54850000Y-66000000D02*
X50450000Y-66000000D01*
%TO.C,DSP1*%
X95123000Y-61485000D02*
X113013000Y-61485000D01*
X113013000Y-64245000D02*
X113013000Y-61485000D01*
X95123000Y-64245000D02*
X95123000Y-61485000D01*
X95123000Y-64245000D02*
X113013000Y-64245000D01*
X93853000Y-64245000D02*
X92473000Y-64245000D01*
X92473000Y-64245000D02*
X92473000Y-62865000D01*
%TO.C,100\u03A92*%
X102770000Y-103980000D02*
X102770000Y-104310000D01*
X102770000Y-106720000D02*
X102770000Y-106390000D01*
X109310000Y-103980000D02*
X102770000Y-103980000D01*
X109310000Y-104310000D02*
X109310000Y-103980000D01*
X109310000Y-106390000D02*
X109310000Y-106720000D01*
X109310000Y-106720000D02*
X102770000Y-106720000D01*
%TO.C,Mic1*%
X132317000Y-63881000D02*
X132317000Y-76691000D01*
X129557000Y-76691000D02*
X132317000Y-76691000D01*
X129557000Y-63881000D02*
X132317000Y-63881000D01*
X129557000Y-63881000D02*
X129557000Y-76691000D01*
X129557000Y-62611000D02*
X129557000Y-61231000D01*
X129557000Y-61231000D02*
X130937000Y-61231000D01*
%TO.C,100\u03A91*%
X47620000Y-120980000D02*
X54160000Y-120980000D01*
X47620000Y-121310000D02*
X47620000Y-120980000D01*
X47620000Y-123390000D02*
X47620000Y-123720000D01*
X47620000Y-123720000D02*
X54160000Y-123720000D01*
X54160000Y-120980000D02*
X54160000Y-121310000D01*
X54160000Y-123720000D02*
X54160000Y-123390000D01*
%TO.C,C1[100uf]2*%
X115275113Y-94550000D02*
G75*
G02*
X110035113Y-94550000I-2620000J0D01*
G01*
X110035113Y-94550000D02*
G75*
G02*
X115275113Y-94550000I2620000J0D01*
G01*
X110055113Y-94833000D02*
X110055113Y-94267000D01*
X110095113Y-95067000D02*
X110095113Y-94033000D01*
X110135113Y-95227000D02*
X110135113Y-93873000D01*
X110175113Y-95355000D02*
X110175113Y-93745000D01*
X110215113Y-95464000D02*
X110215113Y-93636000D01*
X110255113Y-95561000D02*
X110255113Y-93539000D01*
X110295113Y-95648000D02*
X110295113Y-93452000D01*
X110335113Y-95727000D02*
X110335113Y-93373000D01*
X110375113Y-95801000D02*
X110375113Y-93299000D01*
X110415113Y-95869000D02*
X110415113Y-93231000D01*
X110455113Y-95933000D02*
X110455113Y-93167000D01*
X110495113Y-95993000D02*
X110495113Y-93107000D01*
X110535113Y-96049000D02*
X110535113Y-93051000D01*
X110575113Y-96103000D02*
X110575113Y-92997000D01*
X110615113Y-96154000D02*
X110615113Y-92946000D01*
X110655113Y-93510000D02*
X110655113Y-92898000D01*
X110655113Y-96202000D02*
X110655113Y-95590000D01*
X110695113Y-93510000D02*
X110695113Y-92851000D01*
X110695113Y-96249000D02*
X110695113Y-95590000D01*
X110735113Y-93510000D02*
X110735113Y-92807000D01*
X110735113Y-96293000D02*
X110735113Y-95590000D01*
X110775113Y-93510000D02*
X110775113Y-92765000D01*
X110775113Y-96335000D02*
X110775113Y-95590000D01*
X110815113Y-93510000D02*
X110815113Y-92725000D01*
X110815113Y-96375000D02*
X110815113Y-95590000D01*
X110855113Y-93510000D02*
X110855113Y-92686000D01*
X110855113Y-96414000D02*
X110855113Y-95590000D01*
X110895113Y-93510000D02*
X110895113Y-92649000D01*
X110895113Y-96451000D02*
X110895113Y-95590000D01*
X110935113Y-93510000D02*
X110935113Y-92614000D01*
X110935113Y-96486000D02*
X110935113Y-95590000D01*
X110975113Y-93510000D02*
X110975113Y-92580000D01*
X110975113Y-96520000D02*
X110975113Y-95590000D01*
X111015113Y-93510000D02*
X111015113Y-92547000D01*
X111015113Y-96553000D02*
X111015113Y-95590000D01*
X111055113Y-93510000D02*
X111055113Y-92515000D01*
X111055113Y-96585000D02*
X111055113Y-95590000D01*
X111095113Y-93510000D02*
X111095113Y-92485000D01*
X111095113Y-96615000D02*
X111095113Y-95590000D01*
X111135113Y-93510000D02*
X111135113Y-92456000D01*
X111135113Y-96644000D02*
X111135113Y-95590000D01*
X111175113Y-93510000D02*
X111175113Y-92428000D01*
X111175113Y-96672000D02*
X111175113Y-95590000D01*
X111215113Y-93510000D02*
X111215113Y-92401000D01*
X111215113Y-96699000D02*
X111215113Y-95590000D01*
X111255113Y-93510000D02*
X111255113Y-92375000D01*
X111255113Y-96725000D02*
X111255113Y-95590000D01*
X111295113Y-93510000D02*
X111295113Y-92351000D01*
X111295113Y-96749000D02*
X111295113Y-95590000D01*
X111335113Y-93510000D02*
X111335113Y-92327000D01*
X111335113Y-96773000D02*
X111335113Y-95590000D01*
X111375113Y-93510000D02*
X111375113Y-92304000D01*
X111375113Y-96796000D02*
X111375113Y-95590000D01*
X111415113Y-93510000D02*
X111415113Y-92282000D01*
X111415113Y-96818000D02*
X111415113Y-95590000D01*
X111455113Y-93510000D02*
X111455113Y-92261000D01*
X111455113Y-96839000D02*
X111455113Y-95590000D01*
X111495113Y-93510000D02*
X111495113Y-92241000D01*
X111495113Y-96859000D02*
X111495113Y-95590000D01*
X111535113Y-93510000D02*
X111535113Y-92221000D01*
X111535113Y-96879000D02*
X111535113Y-95590000D01*
X111575113Y-93510000D02*
X111575113Y-92203000D01*
X111575113Y-96897000D02*
X111575113Y-95590000D01*
X111615113Y-93510000D02*
X111615113Y-92185000D01*
X111615113Y-96915000D02*
X111615113Y-95590000D01*
X111655113Y-93510000D02*
X111655113Y-92168000D01*
X111655113Y-96932000D02*
X111655113Y-95590000D01*
X111695113Y-93510000D02*
X111695113Y-92152000D01*
X111695113Y-96948000D02*
X111695113Y-95590000D01*
X111735113Y-93510000D02*
X111735113Y-92137000D01*
X111735113Y-96963000D02*
X111735113Y-95590000D01*
X111775113Y-93510000D02*
X111775113Y-92122000D01*
X111775113Y-96978000D02*
X111775113Y-95590000D01*
X111815113Y-93510000D02*
X111815113Y-92108000D01*
X111815113Y-96992000D02*
X111815113Y-95590000D01*
X111855113Y-93510000D02*
X111855113Y-92095000D01*
X111855113Y-97005000D02*
X111855113Y-95590000D01*
X111895113Y-93510000D02*
X111895113Y-92083000D01*
X111895113Y-97017000D02*
X111895113Y-95590000D01*
X111935113Y-93510000D02*
X111935113Y-92071000D01*
X111935113Y-97029000D02*
X111935113Y-95590000D01*
X111975113Y-93510000D02*
X111975113Y-92060000D01*
X111975113Y-97040000D02*
X111975113Y-95590000D01*
X112015113Y-93510000D02*
X112015113Y-92049000D01*
X112015113Y-97051000D02*
X112015113Y-95590000D01*
X112055113Y-93510000D02*
X112055113Y-92040000D01*
X112055113Y-97060000D02*
X112055113Y-95590000D01*
X112095113Y-93510000D02*
X112095113Y-92031000D01*
X112095113Y-97069000D02*
X112095113Y-95590000D01*
X112135113Y-93510000D02*
X112135113Y-92022000D01*
X112135113Y-97078000D02*
X112135113Y-95590000D01*
X112175113Y-93510000D02*
X112175113Y-92014000D01*
X112175113Y-97086000D02*
X112175113Y-95590000D01*
X112215113Y-93510000D02*
X112215113Y-92007000D01*
X112215113Y-97093000D02*
X112215113Y-95590000D01*
X112255113Y-93510000D02*
X112255113Y-92001000D01*
X112255113Y-97099000D02*
X112255113Y-95590000D01*
X112295113Y-93510000D02*
X112295113Y-91995000D01*
X112295113Y-97105000D02*
X112295113Y-95590000D01*
X112335113Y-93510000D02*
X112335113Y-91990000D01*
X112335113Y-97110000D02*
X112335113Y-95590000D01*
X112375113Y-93510000D02*
X112375113Y-91985000D01*
X112375113Y-97115000D02*
X112375113Y-95590000D01*
X112415113Y-93510000D02*
X112415113Y-91981000D01*
X112415113Y-97119000D02*
X112415113Y-95590000D01*
X112455113Y-93510000D02*
X112455113Y-91978000D01*
X112455113Y-97122000D02*
X112455113Y-95590000D01*
X112495113Y-93510000D02*
X112495113Y-91975000D01*
X112495113Y-97125000D02*
X112495113Y-95590000D01*
X112535113Y-93510000D02*
X112535113Y-91973000D01*
X112535113Y-97127000D02*
X112535113Y-95590000D01*
X112575113Y-93510000D02*
X112575113Y-91971000D01*
X112575113Y-97129000D02*
X112575113Y-95590000D01*
X112615113Y-93510000D02*
X112615113Y-91970000D01*
X112615113Y-97130000D02*
X112615113Y-95590000D01*
X112655113Y-93510000D02*
X112655113Y-91970000D01*
X112655113Y-97130000D02*
X112655113Y-95590000D01*
X115209888Y-96275000D02*
X115209888Y-95775000D01*
X115459888Y-96025000D02*
X114959888Y-96025000D01*
%TO.C,D3*%
X103770000Y-116355000D02*
X103770000Y-119445000D01*
X103770000Y-116355170D02*
G75*
G02*
X109320000Y-117900000I2560000J-1544830D01*
G01*
X109320000Y-117900000D02*
G75*
G02*
X103770000Y-119444830I-2990000J0D01*
G01*
X108830000Y-117900000D02*
G75*
G02*
X103830000Y-117900000I-2500000J0D01*
G01*
X103830000Y-117900000D02*
G75*
G02*
X108830000Y-117900000I2500000J0D01*
G01*
%TO.C,5V-1*%
X57200000Y-61600000D02*
X61600000Y-61600000D01*
X57200000Y-66000000D02*
X57200000Y-61600000D01*
X61600000Y-61600000D02*
X61600000Y-66000000D01*
X61600000Y-66000000D02*
X57200000Y-66000000D01*
%TO.C,D1*%
X38655000Y-125340000D02*
X41745000Y-125340000D01*
X38655170Y-125340000D02*
G75*
G02*
X40200000Y-119790000I1544830J2560000D01*
G01*
X40200000Y-119790000D02*
G75*
G02*
X41744830Y-125340000I0J-2990000D01*
G01*
X42700000Y-122780000D02*
G75*
G02*
X37700000Y-122780000I-2500000J0D01*
G01*
X37700000Y-122780000D02*
G75*
G02*
X42700000Y-122780000I2500000J0D01*
G01*
%TO.C,S_3*%
X129801620Y-93949380D02*
X131181620Y-93949380D01*
X129801620Y-95329380D02*
X129801620Y-93949380D01*
X129801620Y-96599380D02*
X129801620Y-101789380D01*
X129801620Y-96599380D02*
X132561620Y-96599380D01*
X129801620Y-101789380D02*
X132561620Y-101789380D01*
X132561620Y-96599380D02*
X132561620Y-101789380D01*
%TO.C,AMP1*%
X74676000Y-61866000D02*
X87486000Y-61866000D01*
X87486000Y-64626000D02*
X87486000Y-61866000D01*
X74676000Y-64626000D02*
X74676000Y-61866000D01*
X74676000Y-64626000D02*
X87486000Y-64626000D01*
X73406000Y-64626000D02*
X72026000Y-64626000D01*
X72026000Y-64626000D02*
X72026000Y-63246000D01*
%TO.C,S_2*%
X132530000Y-107420000D02*
X132530000Y-112610000D01*
X129770000Y-112610000D02*
X132530000Y-112610000D01*
X129770000Y-107420000D02*
X132530000Y-107420000D01*
X129770000Y-107420000D02*
X129770000Y-112610000D01*
X129770000Y-106150000D02*
X129770000Y-104770000D01*
X129770000Y-104770000D02*
X131150000Y-104770000D01*
%TO.C,S_1*%
X132190000Y-85344000D02*
X132190000Y-90534000D01*
X129430000Y-90534000D02*
X132190000Y-90534000D01*
X129430000Y-85344000D02*
X132190000Y-85344000D01*
X129430000Y-85344000D02*
X129430000Y-90534000D01*
X129430000Y-84074000D02*
X129430000Y-82694000D01*
X129430000Y-82694000D02*
X130810000Y-82694000D01*
%TD*%
M02*
