%TF.GenerationSoftware,KiCad,Pcbnew,9.0.7*%
%TF.CreationDate,2026-03-08T01:31:32+05:30*%
%TF.ProjectId,Desk-buddy,4465736b-2d62-4756-9464-792e6b696361,rev?*%
%TF.SameCoordinates,Original*%
%TF.FileFunction,Copper,L2,Bot*%
%TF.FilePolarity,Positive*%
%FSLAX46Y46*%
G04 Gerber Fmt 4.6, Leading zero omitted, Abs format (unit mm)*
G04 Created by KiCad (PCBNEW 9.0.7) date 2026-03-08 01:31:32*
%MOMM*%
%LPD*%
G01*
G04 APERTURE LIST*
G04 Aperture macros list*
%AMRoundRect*
0 Rectangle with rounded corners*
0 $1 Rounding radius*
0 $2 $3 $4 $5 $6 $7 $8 $9 X,Y pos of 4 corners*
0 Add a 4 corners polygon primitive as box body*
4,1,4,$2,$3,$4,$5,$6,$7,$8,$9,$2,$3,0*
0 Add four circle primitives for the rounded corners*
1,1,$1+$1,$2,$3*
1,1,$1+$1,$4,$5*
1,1,$1+$1,$6,$7*
1,1,$1+$1,$8,$9*
0 Add four rect primitives between the rounded corners*
20,1,$1+$1,$2,$3,$4,$5,0*
20,1,$1+$1,$4,$5,$6,$7,0*
20,1,$1+$1,$6,$7,$8,$9,0*
20,1,$1+$1,$8,$9,$2,$3,0*%
G04 Aperture macros list end*
%TA.AperFunction,ComponentPad*%
%ADD10C,4.400000*%
%TD*%
%TA.AperFunction,ComponentPad*%
%ADD11C,1.700000*%
%TD*%
%TA.AperFunction,ComponentPad*%
%ADD12R,1.700000X1.700000*%
%TD*%
%TA.AperFunction,ComponentPad*%
%ADD13R,2.000000X2.000000*%
%TD*%
%TA.AperFunction,ComponentPad*%
%ADD14C,2.000000*%
%TD*%
%TA.AperFunction,ComponentPad*%
%ADD15C,1.800000*%
%TD*%
%TA.AperFunction,ComponentPad*%
%ADD16R,1.800000X1.800000*%
%TD*%
%TA.AperFunction,ComponentPad*%
%ADD17C,1.600000*%
%TD*%
%TA.AperFunction,ComponentPad*%
%ADD18RoundRect,0.250000X0.550000X0.550000X-0.550000X0.550000X-0.550000X-0.550000X0.550000X-0.550000X0*%
%TD*%
%TA.AperFunction,ViaPad*%
%ADD19C,0.600000*%
%TD*%
%TA.AperFunction,ViaPad*%
%ADD20C,0.500000*%
%TD*%
%TA.AperFunction,Conductor*%
%ADD21C,0.500000*%
%TD*%
%TA.AperFunction,Conductor*%
%ADD22C,0.200000*%
%TD*%
G04 APERTURE END LIST*
D10*
%TO.P,REF\u002A\u002A,1*%
%TO.N,N/C*%
X39050000Y-129900000D03*
%TD*%
%TO.P,REF\u002A\u002A,1*%
%TO.N,N/C*%
X131050000Y-129900000D03*
%TD*%
%TO.P,REF\u002A\u002A,1*%
%TO.N,N/C*%
X131050000Y-57500000D03*
%TD*%
%TO.P,REF\u002A\u002A,1*%
%TO.N,N/C*%
X39050000Y-57500000D03*
%TD*%
D11*
%TO.P,Ts1,3,Pin_3*%
%TO.N,Net-(Ts1-Pin_3)*%
X124206000Y-62865000D03*
%TO.P,Ts1,2,Pin_2*%
%TO.N,Net-(DSP1-Pin_8)*%
X121666000Y-62865000D03*
D12*
%TO.P,Ts1,1,Pin_1*%
%TO.N,GND*%
X119126000Y-62865000D03*
%TD*%
D13*
%TO.P,U1,1,3V3*%
%TO.N,Net-(DSP1-Pin_8)*%
X45300000Y-110800000D03*
D14*
%TO.P,U1,2,GND*%
%TO.N,GND*%
X47840000Y-110800000D03*
%TO.P,U1,3,D15*%
%TO.N,unconnected-(U1-D15-Pad3)*%
X50380000Y-110800000D03*
%TO.P,U1,4,D2*%
%TO.N,unconnected-(U1-D2-Pad4)*%
X52920000Y-110800000D03*
%TO.P,U1,5,D4*%
%TO.N,Net-(DSP1-Pin_7)*%
X55460000Y-110800000D03*
%TO.P,U1,6,RX2*%
%TO.N,Net-(U1-RX2)*%
X58000000Y-110800000D03*
%TO.P,U1,7,TX2*%
%TO.N,Net-(U1-TX2)*%
X60540000Y-110800000D03*
%TO.P,U1,8,D5*%
%TO.N,unconnected-(U1-D5-Pad8)*%
X63080000Y-110800000D03*
%TO.P,U1,9,D18*%
%TO.N,Net-(S_1-Pin_3)*%
X65620000Y-110800000D03*
%TO.P,U1,10,D19*%
%TO.N,Net-(S_2-Pin_3)*%
X68160000Y-110800000D03*
%TO.P,U1,11,D21*%
%TO.N,Net-(S_3-Pin_3)*%
X70700000Y-110800000D03*
%TO.P,U1,12,RX0*%
%TO.N,unconnected-(U1-RX0-Pad12)*%
X73240000Y-110800000D03*
%TO.P,U1,13,TX0*%
%TO.N,unconnected-(U1-TX0-Pad13)*%
X75780000Y-110800000D03*
%TO.P,U1,14,D22*%
%TO.N,Net-(DSP1-Pin_3)*%
X78320000Y-110800000D03*
%TO.P,U1,15,D23*%
%TO.N,Net-(DSP1-Pin_4)*%
X80860000Y-110800000D03*
%TO.P,U1,16,EN*%
%TO.N,Net-(DSP1-Pin_5)*%
X80860000Y-85400000D03*
%TO.P,U1,17,VP*%
%TO.N,unconnected-(U1-VP-Pad17)*%
X78320000Y-85400000D03*
%TO.P,U1,18,VN*%
%TO.N,unconnected-(U1-VN-Pad18)*%
X75780000Y-85400000D03*
%TO.P,U1,19,D34*%
%TO.N,Net-(Ts1-Pin_3)*%
X73240000Y-85400000D03*
%TO.P,U1,20,D35*%
%TO.N,unconnected-(U1-D35-Pad20)*%
X70700000Y-85400000D03*
%TO.P,U1,21,D32*%
%TO.N,Net-(Mic1-Pin_5)*%
X68160000Y-85400000D03*
%TO.P,U1,22,D33*%
%TO.N,Net-(Mic1-Pin_3)*%
X65620000Y-85400000D03*
%TO.P,U1,23,D25*%
%TO.N,Net-(Mic1-Pin_4)*%
X63080000Y-85400000D03*
%TO.P,U1,24,D26*%
%TO.N,Net-(DSP1-Pin_6)*%
X60540000Y-85400000D03*
%TO.P,U1,25,D27*%
%TO.N,Net-(AMP1-Pin_5)*%
X58000000Y-85400000D03*
%TO.P,U1,26,D14*%
%TO.N,Net-(AMP1-Pin_4)*%
X55460000Y-85400000D03*
%TO.P,U1,27,D12*%
%TO.N,unconnected-(U1-D12-Pad27)*%
X52920000Y-85400000D03*
%TO.P,U1,28,D13*%
%TO.N,Net-(AMP1-Pin_3)*%
X50380000Y-85400000D03*
%TO.P,U1,29,GND*%
%TO.N,GND*%
X47840000Y-85400000D03*
%TO.P,U1,30,VIN*%
%TO.N,Net-(AMP1-Pin_2)*%
X45300000Y-85400000D03*
%TD*%
D15*
%TO.P,D2,2,A*%
%TO.N,Net-(D2-A)*%
X122950000Y-117900000D03*
D16*
%TO.P,D2,1,K*%
%TO.N,GND*%
X120410000Y-117900000D03*
%TD*%
D15*
%TO.P,D5,2,A*%
%TO.N,Net-(D3-A)*%
X115300000Y-117900000D03*
D16*
%TO.P,D5,1,K*%
%TO.N,GND*%
X112760000Y-117900000D03*
%TD*%
%TO.P,D4,1,K*%
%TO.N,GND*%
X128460000Y-117850000D03*
D15*
%TO.P,D4,2,A*%
%TO.N,Net-(D2-A)*%
X131000000Y-117850000D03*
%TD*%
D12*
%TO.P,SW1,1,A*%
%TO.N,Net-(5V+1-Pin_1)*%
X37750000Y-67300000D03*
D11*
%TO.P,SW1,2,B*%
%TO.N,Net-(AMP1-Pin_2)*%
X37750000Y-69840000D03*
%TD*%
D17*
%TO.P,100\u03A93,2*%
%TO.N,Net-(U1-TX2)*%
X116630000Y-104250000D03*
%TO.P,100\u03A93,1*%
%TO.N,Net-(D2-A)*%
X124250000Y-104250000D03*
%TD*%
D11*
%TO.P,DSP1,8,Pin_8*%
%TO.N,Net-(DSP1-Pin_8)*%
X111633000Y-62865000D03*
%TO.P,DSP1,7,Pin_7*%
%TO.N,Net-(DSP1-Pin_7)*%
X109093000Y-62865000D03*
%TO.P,DSP1,6,Pin_6*%
%TO.N,Net-(DSP1-Pin_6)*%
X106553000Y-62865000D03*
%TO.P,DSP1,5,Pin_5*%
%TO.N,Net-(DSP1-Pin_5)*%
X104013000Y-62865000D03*
%TO.P,DSP1,4,Pin_4*%
%TO.N,Net-(DSP1-Pin_4)*%
X101473000Y-62865000D03*
%TO.P,DSP1,3,Pin_3*%
%TO.N,Net-(DSP1-Pin_3)*%
X98933000Y-62865000D03*
%TO.P,DSP1,2,Pin_2*%
%TO.N,Net-(AMP1-Pin_2)*%
X96393000Y-62865000D03*
D12*
%TO.P,DSP1,1,Pin_1*%
%TO.N,GND*%
X93853000Y-62865000D03*
%TD*%
D17*
%TO.P,100\u03A92,2*%
%TO.N,Net-(U1-RX2)*%
X102230000Y-105350000D03*
%TO.P,100\u03A92,1*%
%TO.N,Net-(D3-A)*%
X109850000Y-105350000D03*
%TD*%
D11*
%TO.P,Mic1,6,Pin_6*%
%TO.N,GND*%
X130937000Y-75311000D03*
%TO.P,Mic1,5,Pin_5*%
%TO.N,Net-(Mic1-Pin_5)*%
X130937000Y-72771000D03*
%TO.P,Mic1,4,Pin_4*%
%TO.N,Net-(Mic1-Pin_4)*%
X130937000Y-70231000D03*
%TO.P,Mic1,3,Pin_3*%
%TO.N,Net-(Mic1-Pin_3)*%
X130937000Y-67691000D03*
%TO.P,Mic1,2,Pin_2*%
%TO.N,Net-(DSP1-Pin_8)*%
X130937000Y-65151000D03*
D12*
%TO.P,Mic1,1,Pin_1*%
%TO.N,GND*%
X130937000Y-62611000D03*
%TD*%
D17*
%TO.P,100\u03A91,1*%
%TO.N,Net-(D1-A)*%
X47080000Y-122350000D03*
%TO.P,100\u03A91,2*%
%TO.N,Net-(DSP1-Pin_8)*%
X54700000Y-122350000D03*
%TD*%
%TO.P,C1[100uf]2,2*%
%TO.N,GND*%
X111655113Y-94550000D03*
D18*
%TO.P,C1[100uf]2,1*%
%TO.N,Net-(AMP1-Pin_2)*%
X113655113Y-94550000D03*
%TD*%
D16*
%TO.P,D3,1,K*%
%TO.N,GND*%
X105060000Y-117900000D03*
D15*
%TO.P,D3,2,A*%
%TO.N,Net-(D3-A)*%
X107600000Y-117900000D03*
%TD*%
D16*
%TO.P,D1,1,K*%
%TO.N,GND*%
X40200000Y-124050000D03*
D15*
%TO.P,D1,2,A*%
%TO.N,Net-(D1-A)*%
X40200000Y-121510000D03*
%TD*%
D12*
%TO.P,S_3,1,Pin_1*%
%TO.N,GND*%
X131181620Y-95329380D03*
D11*
%TO.P,S_3,2,Pin_2*%
%TO.N,Net-(AMP1-Pin_2)*%
X131181620Y-97869380D03*
%TO.P,S_3,3,Pin_3*%
%TO.N,Net-(S_3-Pin_3)*%
X131181620Y-100409380D03*
%TD*%
%TO.P,AMP1,6,Pin_6*%
%TO.N,unconnected-(AMP1-Pin_6-Pad6)*%
X86106000Y-63246000D03*
%TO.P,AMP1,5,Pin_5*%
%TO.N,Net-(AMP1-Pin_5)*%
X83566000Y-63246000D03*
%TO.P,AMP1,4,Pin_4*%
%TO.N,Net-(AMP1-Pin_4)*%
X81026000Y-63246000D03*
%TO.P,AMP1,3,Pin_3*%
%TO.N,Net-(AMP1-Pin_3)*%
X78486000Y-63246000D03*
%TO.P,AMP1,2,Pin_2*%
%TO.N,Net-(AMP1-Pin_2)*%
X75946000Y-63246000D03*
D12*
%TO.P,AMP1,1,Pin_1*%
%TO.N,GND*%
X73406000Y-63246000D03*
%TD*%
D11*
%TO.P,S_2,3,Pin_3*%
%TO.N,Net-(S_2-Pin_3)*%
X131150000Y-111230000D03*
%TO.P,S_2,2,Pin_2*%
%TO.N,Net-(AMP1-Pin_2)*%
X131150000Y-108690000D03*
D12*
%TO.P,S_2,1,Pin_1*%
%TO.N,GND*%
X131150000Y-106150000D03*
%TD*%
D11*
%TO.P,S_1,3,Pin_3*%
%TO.N,Net-(S_1-Pin_3)*%
X130810000Y-89154000D03*
%TO.P,S_1,2,Pin_2*%
%TO.N,Net-(AMP1-Pin_2)*%
X130810000Y-86614000D03*
D12*
%TO.P,S_1,1,Pin_1*%
%TO.N,GND*%
X130810000Y-84074000D03*
%TD*%
D19*
%TO.N,GND*%
X92500000Y-79450000D03*
X115100000Y-80850000D03*
X98050000Y-80150000D03*
X56500000Y-114200000D03*
X59100000Y-114200000D03*
D20*
%TO.N,Net-(DSP1-Pin_8)*%
X110538000Y-66850000D03*
%TO.N,Net-(AMP1-Pin_2)*%
X107750000Y-70000000D03*
X105200000Y-69950000D03*
X115150000Y-70050000D03*
D19*
%TO.N,Net-(DSP1-Pin_5)*%
X104013000Y-75600000D03*
%TO.N,Net-(AMP1-Pin_2)*%
X125800000Y-89600000D03*
X125800000Y-88150000D03*
X125800000Y-99000000D03*
X125800000Y-101550000D03*
%TO.N,GND*%
X88800000Y-77300000D03*
D20*
%TO.N,Net-(AMP1-Pin_2)*%
X76950000Y-67900000D03*
X90100000Y-76550000D03*
D19*
%TO.N,Net-(S_2-Pin_3)*%
X69050000Y-120050000D03*
%TO.N,Net-(S_3-Pin_3)*%
X71350000Y-119000000D03*
%TO.N,Net-(S_1-Pin_3)*%
X65620000Y-118000000D03*
D20*
%TO.N,GND*%
X119634000Y-68072000D03*
D19*
%TO.N,Net-(Mic1-Pin_5)*%
X71374000Y-79502000D03*
X75057000Y-79502000D03*
%TO.N,Net-(Mic1-Pin_4)*%
X63119000Y-79248000D03*
X74930000Y-78359000D03*
%TO.N,Net-(Mic1-Pin_3)*%
X74930000Y-77343000D03*
X71501000Y-77343000D03*
D20*
%TO.N,GND*%
X120966000Y-65405000D03*
X122809000Y-65405000D03*
%TO.N,Net-(DSP1-Pin_8)*%
X113500000Y-66850000D03*
D19*
%TO.N,GND*%
X47850000Y-117000000D03*
%TO.N,Net-(DSP1-Pin_4)*%
X80860000Y-114500000D03*
D20*
%TO.N,Net-(AMP1-Pin_2)*%
X96393000Y-65950000D03*
%TO.N,GND*%
X93853000Y-66700000D03*
D19*
%TO.N,Net-(AMP1-Pin_2)*%
X43942000Y-71120000D03*
X48100000Y-71100000D03*
%TD*%
D21*
%TO.N,GND*%
X105060000Y-125150000D02*
X104150000Y-125150000D01*
X100100000Y-121100000D02*
X57400000Y-121100000D01*
X57400000Y-121100000D02*
X57300000Y-121200000D01*
X104150000Y-125150000D02*
X100100000Y-121100000D01*
X57300000Y-121200000D02*
X57300000Y-126500000D01*
X57300000Y-126500000D02*
X40200000Y-126500000D01*
X40200000Y-126500000D02*
X40200000Y-124050000D01*
X93200000Y-80150000D02*
X98050000Y-80150000D01*
X92500000Y-79450000D02*
X93200000Y-80150000D01*
X112550000Y-65800000D02*
X112550000Y-82200000D01*
X113750000Y-82200000D02*
X112550000Y-82200000D01*
X115100000Y-80850000D02*
X113750000Y-82200000D01*
X59100000Y-114200000D02*
X56500000Y-114200000D01*
X47850000Y-117000000D02*
X93300000Y-117000000D01*
X93300000Y-117000000D02*
X93300000Y-87200000D01*
X93300000Y-87200000D02*
X103950000Y-87200000D01*
X103950000Y-87200000D02*
X106000000Y-85150000D01*
X106000000Y-85150000D02*
X111850000Y-85150000D01*
X111850000Y-85150000D02*
X112544000Y-84456000D01*
X112544000Y-84456000D02*
X112544000Y-84350000D01*
X117300000Y-65400000D02*
X116850000Y-65400000D01*
X117300000Y-65400000D02*
X117300000Y-64691000D01*
X117300000Y-64691000D02*
X119126000Y-62865000D01*
X120966000Y-65405000D02*
X118595000Y-65405000D01*
X112550000Y-82200000D02*
X112550000Y-84356000D01*
X118595000Y-65405000D02*
X118590000Y-65400000D01*
X118590000Y-65400000D02*
X117300000Y-65400000D01*
X116850000Y-65400000D02*
X116450000Y-65800000D01*
X116450000Y-65800000D02*
X112550000Y-65800000D01*
X126245000Y-65405000D02*
X127350000Y-64300000D01*
X127350000Y-62611000D02*
X130937000Y-62611000D01*
X122809000Y-65405000D02*
X126245000Y-65405000D01*
X127350000Y-64300000D02*
X127350000Y-62611000D01*
X129286000Y-76962000D02*
X130937000Y-75311000D01*
X117602000Y-68072000D02*
X117602000Y-76962000D01*
X119634000Y-68072000D02*
X117602000Y-68072000D01*
X117602000Y-76962000D02*
X129286000Y-76962000D01*
X112800000Y-125150000D02*
X105060000Y-125150000D01*
X120700000Y-125150000D02*
X120350000Y-125150000D01*
X120410000Y-117900000D02*
X120410000Y-125090000D01*
D22*
X120410000Y-125090000D02*
X120350000Y-125150000D01*
D21*
%TO.N,Net-(AMP1-Pin_2)*%
X96393000Y-65950000D02*
X75950000Y-65950000D01*
X75950000Y-65950000D02*
X75950000Y-65800000D01*
X75950000Y-65800000D02*
X75946000Y-65796000D01*
X75946000Y-65796000D02*
X75946000Y-63246000D01*
%TO.N,Net-(DSP1-Pin_8)*%
X130937000Y-65151000D02*
X129199000Y-65151000D01*
X129199000Y-65151000D02*
X128056000Y-66294000D01*
X128056000Y-66294000D02*
X121793000Y-66294000D01*
X111633000Y-62865000D02*
X111633000Y-84100000D01*
X105900000Y-84100000D02*
X103700000Y-86300000D01*
X92400000Y-86300000D02*
X92400000Y-116100000D01*
X103700000Y-86300000D02*
X92400000Y-86300000D01*
X111633000Y-84100000D02*
X105900000Y-84100000D01*
X92400000Y-116100000D02*
X45300000Y-116100000D01*
X45300000Y-116100000D02*
X45300000Y-110800000D01*
D22*
%TO.N,Net-(S_1-Pin_3)*%
X65620000Y-118000000D02*
X94200000Y-118000000D01*
X106000000Y-88950000D02*
X130606000Y-88950000D01*
X94200000Y-118000000D02*
X94200000Y-88200000D01*
X94200000Y-88200000D02*
X105250000Y-88200000D01*
X130606000Y-88950000D02*
X130810000Y-89154000D01*
X105250000Y-88200000D02*
X106000000Y-88950000D01*
D21*
%TO.N,Net-(AMP1-Pin_2)*%
X107750000Y-70000000D02*
X105350000Y-70000000D01*
X90100000Y-76550000D02*
X90100000Y-68000000D01*
X90100000Y-68000000D02*
X90000000Y-67900000D01*
X90000000Y-67900000D02*
X76950000Y-67900000D01*
X115150000Y-70050000D02*
X115150000Y-78150000D01*
X115150000Y-78150000D02*
X117450000Y-78150000D01*
X117450000Y-78150000D02*
X125900000Y-86600000D01*
D22*
%TO.N,GND*%
X112544000Y-84350000D02*
X112550000Y-84356000D01*
%TO.N,Net-(DSP1-Pin_8)*%
X121793000Y-66294000D02*
X121666000Y-66167000D01*
D21*
X121031000Y-66802000D02*
X120933000Y-66900000D01*
X120933000Y-66900000D02*
X113550000Y-66900000D01*
X113550000Y-66900000D02*
X113500000Y-66850000D01*
X121031000Y-66802000D02*
X121666000Y-66167000D01*
X121666000Y-66167000D02*
X121666000Y-62865000D01*
X110550000Y-63948000D02*
X111633000Y-62865000D01*
X110538000Y-66850000D02*
X110538000Y-66754000D01*
X110538000Y-66754000D02*
X110550000Y-66742000D01*
X110550000Y-66742000D02*
X110550000Y-63948000D01*
%TO.N,Net-(D1-A)*%
X40200000Y-121510000D02*
X41040000Y-122350000D01*
X41040000Y-122350000D02*
X47080000Y-122350000D01*
%TO.N,Net-(AMP1-Pin_2)*%
X48100000Y-71100000D02*
X43962000Y-71100000D01*
D22*
X43962000Y-71100000D02*
X43942000Y-71120000D01*
D21*
%TO.N,GND*%
X105060000Y-125150000D02*
X105060000Y-117900000D01*
D22*
%TO.N,Net-(AMP1-Pin_2)*%
X105300000Y-70050000D02*
X105200000Y-69950000D01*
%TO.N,GND*%
X73400000Y-67006000D02*
X73406000Y-67000000D01*
D21*
X88800000Y-77300000D02*
X88800000Y-69300000D01*
X88800000Y-69300000D02*
X73400000Y-69300000D01*
X73400000Y-69300000D02*
X73400000Y-67006000D01*
D22*
%TO.N,Net-(DSP1-Pin_5)*%
X104013000Y-75600000D02*
X104013000Y-62865000D01*
%TO.N,Net-(DSP1-Pin_4)*%
X80860000Y-114500000D02*
X80960000Y-114400000D01*
X90678000Y-114400000D02*
X90678000Y-84950000D01*
X80960000Y-114400000D02*
X90678000Y-114400000D01*
X90678000Y-84950000D02*
X101450000Y-84950000D01*
X101450000Y-84950000D02*
X101450000Y-62888000D01*
X101450000Y-62888000D02*
X101473000Y-62865000D01*
D21*
%TO.N,Net-(AMP1-Pin_2)*%
X130796000Y-86600000D02*
X125900000Y-86600000D01*
X125800000Y-101550000D02*
X125800000Y-108690000D01*
X125800000Y-108690000D02*
X131150000Y-108690000D01*
X125800000Y-99000000D02*
X125800000Y-98000000D01*
D22*
X125800000Y-98000000D02*
X125800000Y-97850000D01*
X125800000Y-97850000D02*
X125819380Y-97869380D01*
D21*
X125819380Y-97869380D02*
X131181620Y-97869380D01*
X125800000Y-89600000D02*
X125800000Y-98000000D01*
D22*
X130810000Y-86614000D02*
X130796000Y-86600000D01*
X125900000Y-86600000D02*
X125800000Y-86600000D01*
D21*
X125800000Y-86600000D02*
X125800000Y-88150000D01*
%TO.N,GND*%
X128460000Y-117850000D02*
X128460000Y-125150000D01*
X128460000Y-125150000D02*
X120700000Y-125150000D01*
X120350000Y-125150000D02*
X112850000Y-125150000D01*
X112760000Y-117900000D02*
X112760000Y-125110000D01*
X93853000Y-66700000D02*
X93853000Y-67000000D01*
X93853000Y-67000000D02*
X73406000Y-67000000D01*
X73406000Y-67000000D02*
X73406000Y-63246000D01*
D22*
%TO.N,Net-(DSP1-Pin_7)*%
X109093000Y-62865000D02*
X109093000Y-83058000D01*
X105115000Y-83185000D02*
X102850000Y-85450000D01*
X102850000Y-85450000D02*
X91500000Y-85450000D01*
X108966000Y-83185000D02*
X105115000Y-83185000D01*
X109093000Y-83058000D02*
X108966000Y-83185000D01*
X91500000Y-85450000D02*
X91500000Y-115250000D01*
X91500000Y-115250000D02*
X55460000Y-115250000D01*
X55460000Y-115250000D02*
X55460000Y-110800000D01*
%TO.N,Net-(DSP1-Pin_3)*%
X98933000Y-62865000D02*
X98933000Y-84455000D01*
X98933000Y-84455000D02*
X89662000Y-84455000D01*
X89662000Y-84455000D02*
X89662000Y-113700000D01*
X89662000Y-113700000D02*
X78320000Y-113700000D01*
X78320000Y-113700000D02*
X78320000Y-110800000D01*
%TO.N,Net-(S_2-Pin_3)*%
X69050000Y-120050000D02*
X96200000Y-120050000D01*
X96200000Y-120050000D02*
X96200000Y-111230000D01*
X96200000Y-111230000D02*
X131150000Y-111230000D01*
%TO.N,Net-(S_3-Pin_3)*%
X71350000Y-119000000D02*
X95050000Y-119000000D01*
X95050000Y-119000000D02*
X95050000Y-100409380D01*
X95050000Y-100409380D02*
X131181620Y-100409380D01*
%TO.N,Net-(Mic1-Pin_5)*%
X75057000Y-79502000D02*
X71374000Y-79502000D01*
%TO.N,Net-(Mic1-Pin_4)*%
X74930000Y-78359000D02*
X64008000Y-78359000D01*
X64008000Y-78359000D02*
X63119000Y-79248000D01*
%TO.N,Net-(Mic1-Pin_3)*%
X74930000Y-77343000D02*
X71501000Y-77343000D01*
%TO.N,Net-(DSP1-Pin_8)*%
X121666000Y-66040000D02*
X121666000Y-62865000D01*
%TD*%
M02*
