M48
; DRILL file {KiCad 9.0.7} date 2026-03-08T01:30:32+0530
; FORMAT={-:-/ absolute / metric / decimal}
; #@! TF.CreationDate,2026-03-08T01:30:32+05:30
; #@! TF.GenerationSoftware,Kicad,Pcbnew,9.0.7
; #@! TF.FileFunction,Plated,1,2,PTH
FMAT,2
METRIC
; #@! TA.AperFunction,Plated,PTH,ViaDrill
T1C0.300
; #@! TA.AperFunction,Plated,PTH,ComponentDrill
T2C0.800
; #@! TA.AperFunction,Plated,PTH,ComponentDrill
T3C0.900
; #@! TA.AperFunction,Plated,PTH,ComponentDrill
T4C1.000
; #@! TA.AperFunction,Plated,PTH,ComponentDrill
T5C1.020
; #@! TA.AperFunction,Plated,PTH,ComponentDrill
T6C2.200
%
G90
G05
T1
X43.942Y-71.12
X47.85Y-117.0
X48.1Y-71.1
X56.5Y-114.2
X59.1Y-114.2
X63.119Y-79.248
X65.62Y-118.0
X69.05Y-120.05
X71.35Y-119.0
X71.374Y-79.502
X71.501Y-77.343
X74.93Y-77.343
X74.93Y-78.359
X75.057Y-79.502
X76.95Y-67.9
X80.86Y-114.5
X88.8Y-77.3
X90.1Y-76.55
X92.5Y-79.45
X93.853Y-66.7
X96.393Y-65.95
X98.05Y-80.15
X104.013Y-75.6
X105.2Y-69.95
X107.75Y-70.0
X110.538Y-66.85
X113.5Y-66.85
X115.1Y-80.85
X115.15Y-70.05
X119.634Y-68.072
X120.966Y-65.405
X122.809Y-65.405
X125.8Y-88.15
X125.8Y-89.6
X125.8Y-99.0
X125.8Y-101.55
T2
X47.08Y-122.35
X54.7Y-122.35
X102.23Y-105.35
X109.85Y-105.35
X111.655Y-94.55
X113.655Y-94.55
X116.63Y-104.25
X124.25Y-104.25
T3
X40.2Y-121.51
X40.2Y-124.05
X105.06Y-117.9
X107.6Y-117.9
X112.76Y-117.9
X115.3Y-117.9
X120.41Y-117.9
X122.95Y-117.9
X128.46Y-117.85
X131.0Y-117.85
T4
X37.75Y-67.3
X37.75Y-69.84
X73.406Y-63.246
X75.946Y-63.246
X78.486Y-63.246
X81.026Y-63.246
X83.566Y-63.246
X86.106Y-63.246
X93.853Y-62.865
X96.393Y-62.865
X98.933Y-62.865
X101.473Y-62.865
X104.013Y-62.865
X106.553Y-62.865
X109.093Y-62.865
X111.633Y-62.865
X119.126Y-62.865
X121.666Y-62.865
X124.206Y-62.865
X130.81Y-84.074
X130.81Y-86.614
X130.81Y-89.154
X130.937Y-62.611
X130.937Y-65.151
X130.937Y-67.691
X130.937Y-70.231
X130.937Y-72.771
X130.937Y-75.311
X131.15Y-106.15
X131.15Y-108.69
X131.15Y-111.23
X131.182Y-95.329
X131.182Y-97.869
X131.182Y-100.409
T5
X45.3Y-85.4
X45.3Y-110.8
X47.84Y-85.4
X47.84Y-110.8
X50.38Y-85.4
X50.38Y-110.8
X52.92Y-85.4
X52.92Y-110.8
X55.46Y-85.4
X55.46Y-110.8
X58.0Y-85.4
X58.0Y-110.8
X60.54Y-85.4
X60.54Y-110.8
X63.08Y-85.4
X63.08Y-110.8
X65.62Y-85.4
X65.62Y-110.8
X68.16Y-85.4
X68.16Y-110.8
X70.7Y-85.4
X70.7Y-110.8
X73.24Y-85.4
X73.24Y-110.8
X75.78Y-85.4
X75.78Y-110.8
X78.32Y-85.4
X78.32Y-110.8
X80.86Y-85.4
X80.86Y-110.8
T6
X39.05Y-57.5
X39.05Y-129.9
X131.05Y-57.5
X131.05Y-129.9
M30
