%TF.GenerationSoftware,KiCad,Pcbnew,9.0.7*%
%TF.CreationDate,2026-03-08T01:31:33+05:30*%
%TF.ProjectId,Desk-buddy,4465736b-2d62-4756-9464-792e6b696361,rev?*%
%TF.SameCoordinates,Original*%
%TF.FileFunction,Soldermask,Bot*%
%TF.FilePolarity,Negative*%
%FSLAX46Y46*%
G04 Gerber Fmt 4.6, Leading zero omitted, Abs format (unit mm)*
G04 Created by KiCad (PCBNEW 9.0.7) date 2026-03-08 01:31:33*
%MOMM*%
%LPD*%
G01*
G04 APERTURE LIST*
G04 Aperture macros list*
%AMRoundRect*
0 Rectangle with rounded corners*
0 $1 Rounding radius*
0 $2 $3 $4 $5 $6 $7 $8 $9 X,Y pos of 4 corners*
0 Add a 4 corners polygon primitive as box body*
4,1,4,$2,$3,$4,$5,$6,$7,$8,$9,$2,$3,0*
0 Add four circle primitives for the rounded corners*
1,1,$1+$1,$2,$3*
1,1,$1+$1,$4,$5*
1,1,$1+$1,$6,$7*
1,1,$1+$1,$8,$9*
0 Add four rect primitives between the rounded corners*
20,1,$1+$1,$2,$3,$4,$5,0*
20,1,$1+$1,$4,$5,$6,$7,0*
20,1,$1+$1,$6,$7,$8,$9,0*
20,1,$1+$1,$8,$9,$2,$3,0*%
G04 Aperture macros list end*
%ADD10C,4.400000*%
%ADD11C,1.700000*%
%ADD12R,1.700000X1.700000*%
%ADD13C,3.000000*%
%ADD14RoundRect,0.102000X1.000000X-1.000000X1.000000X1.000000X-1.000000X1.000000X-1.000000X-1.000000X0*%
%ADD15C,2.204000*%
%ADD16C,1.800000*%
%ADD17R,1.800000X1.800000*%
%ADD18C,1.600000*%
%ADD19RoundRect,0.250000X0.550000X0.550000X-0.550000X0.550000X-0.550000X-0.550000X0.550000X-0.550000X0*%
G04 APERTURE END LIST*
D10*
%TO.C,REF\u002A\u002A*%
X39050000Y-129900000D03*
%TD*%
%TO.C,REF\u002A\u002A*%
X131050000Y-129900000D03*
%TD*%
%TO.C,REF\u002A\u002A*%
X131050000Y-57500000D03*
%TD*%
%TO.C,REF\u002A\u002A*%
X39050000Y-57500000D03*
%TD*%
D11*
%TO.C,Ts1*%
X124206000Y-62865000D03*
X121666000Y-62865000D03*
D12*
X119126000Y-62865000D03*
%TD*%
D13*
%TO.C,U1*%
X37340000Y-110380000D03*
X84290000Y-110380000D03*
X37340000Y-85870000D03*
X84290000Y-85870000D03*
D14*
X45300000Y-110800000D03*
D15*
X47840000Y-110800000D03*
X50380000Y-110800000D03*
X52920000Y-110800000D03*
X55460000Y-110800000D03*
X58000000Y-110800000D03*
X60540000Y-110800000D03*
X63080000Y-110800000D03*
X65620000Y-110800000D03*
X68160000Y-110800000D03*
X70700000Y-110800000D03*
X73240000Y-110800000D03*
X75780000Y-110800000D03*
X78320000Y-110800000D03*
X80860000Y-110800000D03*
X80860000Y-85400000D03*
X78320000Y-85400000D03*
X75780000Y-85400000D03*
X73240000Y-85400000D03*
X70700000Y-85400000D03*
X68160000Y-85400000D03*
X65620000Y-85400000D03*
X63080000Y-85400000D03*
X60540000Y-85400000D03*
X58000000Y-85400000D03*
X55460000Y-85400000D03*
X52920000Y-85400000D03*
X50380000Y-85400000D03*
X47840000Y-85400000D03*
X45300000Y-85400000D03*
%TD*%
D16*
%TO.C,D2*%
X122950000Y-117900000D03*
D17*
X120410000Y-117900000D03*
%TD*%
D16*
%TO.C,D5*%
X115300000Y-117900000D03*
D17*
X112760000Y-117900000D03*
%TD*%
%TO.C,D4*%
X128460000Y-117850000D03*
D16*
X131000000Y-117850000D03*
%TD*%
D12*
%TO.C,SW1*%
X37750000Y-67300000D03*
D11*
X37750000Y-69840000D03*
%TD*%
D18*
%TO.C,100\u03A93*%
X116630000Y-104250000D03*
X124250000Y-104250000D03*
%TD*%
D11*
%TO.C,DSP1*%
X111633000Y-62865000D03*
X109093000Y-62865000D03*
X106553000Y-62865000D03*
X104013000Y-62865000D03*
X101473000Y-62865000D03*
X98933000Y-62865000D03*
X96393000Y-62865000D03*
D12*
X93853000Y-62865000D03*
%TD*%
D18*
%TO.C,100\u03A92*%
X102230000Y-105350000D03*
X109850000Y-105350000D03*
%TD*%
D11*
%TO.C,Mic1*%
X130937000Y-75311000D03*
X130937000Y-72771000D03*
X130937000Y-70231000D03*
X130937000Y-67691000D03*
X130937000Y-65151000D03*
D12*
X130937000Y-62611000D03*
%TD*%
D18*
%TO.C,100\u03A91*%
X47080000Y-122350000D03*
X54700000Y-122350000D03*
%TD*%
%TO.C,C1[100uf]2*%
X111655113Y-94550000D03*
D19*
X113655113Y-94550000D03*
%TD*%
D17*
%TO.C,D3*%
X105060000Y-117900000D03*
D16*
X107600000Y-117900000D03*
%TD*%
D17*
%TO.C,D1*%
X40200000Y-124050000D03*
D16*
X40200000Y-121510000D03*
%TD*%
D12*
%TO.C,S_3*%
X131181620Y-95329380D03*
D11*
X131181620Y-97869380D03*
X131181620Y-100409380D03*
%TD*%
%TO.C,AMP1*%
X86106000Y-63246000D03*
X83566000Y-63246000D03*
X81026000Y-63246000D03*
X78486000Y-63246000D03*
X75946000Y-63246000D03*
D12*
X73406000Y-63246000D03*
%TD*%
D11*
%TO.C,S_2*%
X131150000Y-111230000D03*
X131150000Y-108690000D03*
D12*
X131150000Y-106150000D03*
%TD*%
D11*
%TO.C,S_1*%
X130810000Y-89154000D03*
X130810000Y-86614000D03*
D12*
X130810000Y-84074000D03*
%TD*%
M02*
